<?xml version="1.0" standalone="no"?>
<!DOCTYPE svg PUBLIC "-//W3C//DTD SVG 1.1//EN" "http://www.w3.org/Graphics/SVG/1.1/DTD/svg11.dtd" >
<svg xmlns="http://www.w3.org/2000/svg" xmlns:xlink="http://www.w3.org/1999/xlink" version="1.1">
<metadata></metadata>
<defs>
<font id="montserratmedium_italic" horiz-adv-x="1396" >
<font-face units-per-em="2048" ascent="1638" descent="-410" />
<missing-glyph horiz-adv-x="550" />
<glyph unicode="&#xfb01;" horiz-adv-x="1458" d="M106 0l187 924h-187l31 161h189l20 103q33 165 135 254.5t267 89.5q143 0 227 -68l-82 -145q-57 51 -145 51q-89 0 -140 -48.5t-73 -150.5l-19 -86h315l-32 -161h-310l-186 -924h-197zM967 0l215 1085h196l-215 -1085h-196zM1214 1413q0 58 40 97.5t102 39.5 q53 0 89 -33.5t36 -80.5q0 -63 -40.5 -102.5t-103.5 -39.5q-53 0 -88 34.5t-35 84.5z" />
<glyph unicode="&#xfb02;" horiz-adv-x="1294" d="M106 0l187 924h-187l31 161h189l20 103q33 165 135 254.5t267 89.5q143 0 227 -68l-82 -145q-57 51 -145 51q-89 0 -140 -48.5t-73 -150.5l-19 -86h315l-32 -161h-310l-186 -924h-197zM803 0l303 1520h197l-304 -1520h-196z" />
<glyph horiz-adv-x="0" />
<glyph horiz-adv-x="682" />
<glyph horiz-adv-x="0" />
<glyph horiz-adv-x="0" />
<glyph unicode="&#xd;" horiz-adv-x="550" />
<glyph unicode=" "  horiz-adv-x="550" />
<glyph unicode="&#x09;" horiz-adv-x="550" />
<glyph unicode="&#xa0;" horiz-adv-x="550" />
<glyph unicode="!" horiz-adv-x="548" d="M57 111q0 61 39.5 100t98.5 39q55 0 91 -35t36 -86q0 -60 -39.5 -100.5t-98.5 -40.5q-54 0 -90.5 36t-36.5 87zM178 453l158 981h233l-235 -981h-156z" />
<glyph unicode="&#x22;" horiz-adv-x="800" d="M213 881l94 553h172l-123 -553h-143zM584 881l94 553h172l-123 -553h-143z" />
<glyph unicode="#" horiz-adv-x="1439" d="M23 369l28 149h299l127 397h-280l28 150h299l119 369h150l-119 -369h381l119 369h151l-119 -369h285l-31 -150h-301l-127 -397h283l-29 -149h-301l-119 -369h-151l119 369h-381l-119 -369h-150l119 369h-280zM500 518h381l127 397h-381z" />
<glyph unicode="$" horiz-adv-x="1271" d="M12 158l90 164q72 -66 180 -109.5t226 -52.5l94 479q-47 14 -81 26t-76.5 30.5t-72.5 37.5t-61 47t-49.5 60t-30.5 74.5t-12 91.5q0 194 150 312.5t395 129.5l47 231h129l-47 -231q235 -19 383 -119l-82 -168q-140 101 -336 113l-96 -488q49 -15 83 -26t78.5 -29.5 t74.5 -36.5t62.5 -45.5t51 -58t31 -71.5t12.5 -89q0 -195 -151.5 -314t-401.5 -130l-47 -232h-129l47 232q-142 12 -266.5 59t-194.5 113zM420 1022q0 -75 56.5 -119t162.5 -80l90 449q-143 -14 -226 -80.5t-83 -169.5zM637 160q147 12 232 75t85 166q0 76 -59 120.5 t-170 80.5z" />
<glyph unicode="%" horiz-adv-x="1728" d="M172 977q0 126 46.5 231.5t137 170.5t207.5 65q133 0 211 -82.5t78 -228.5q0 -126 -46 -231.5t-136.5 -170.5t-208.5 -65q-133 0 -211 82.5t-78 228.5zM186 0l1258 1434h164l-1254 -1434h-168zM305 987q0 -100 44 -153.5t122 -53.5q79 0 137 54t84.5 130t26.5 158 q0 100 -44 153.5t-122 53.5q-79 0 -137 -54t-84.5 -130t-26.5 -158zM946 299q0 126 46 231.5t136.5 170.5t208.5 65q132 0 209.5 -82.5t77.5 -228.5q0 -127 -45.5 -232t-136 -170t-209.5 -65q-133 0 -210 82t-77 229zM1077 309q0 -99 44.5 -153t121.5 -54q79 0 137 54 t84.5 130t26.5 158q0 100 -44 153.5t-122 53.5q-59 0 -107.5 -31t-78.5 -81.5t-46 -110t-16 -119.5z" />
<glyph unicode="&#x26;" horiz-adv-x="1404" d="M53 322q0 146 104.5 259t327.5 220q-106 143 -106 274q0 170 118.5 270.5t303.5 100.5q150 0 242 -70.5t92 -193.5q0 -130 -91.5 -225t-293.5 -191l282 -348q87 118 142 262l153 -51q-74 -196 -190 -340l147 -183l-131 -129l-145 181q-210 -174 -490 -174 q-213 0 -339 91.5t-126 246.5zM250 354q0 -93 73.5 -150t206.5 -57q206 0 375 138l-327 401q-179 -86 -253.5 -160.5t-74.5 -171.5zM559 1094q0 -92 98 -215q179 84 244.5 145t65.5 141q0 60 -46 99t-126 39q-107 0 -171.5 -57t-64.5 -152z" />
<glyph unicode="'" horiz-adv-x="430" d="M213 881l94 553h172l-123 -553h-143z" />
<glyph unicode="(" horiz-adv-x="690" d="M160 162q0 372 123.5 737t337.5 621h200q-222 -284 -347.5 -645.5t-125.5 -722.5q0 -269 88 -549h-180q-44 112 -70 262t-26 297z" />
<glyph unicode=")" horiz-adv-x="690" d="M-39 -397q222 284 347.5 645.5t125.5 722.5q0 269 -88 549h180q44 -113 70.5 -263t26.5 -296q0 -372 -123.5 -737t-337.5 -621h-201z" />
<glyph unicode="*" horiz-adv-x="819" d="M129 997l281 142l-217 135l75 115l221 -152l52 283h125l-58 -281l275 147l49 -114l-277 -137l213 -134l-75 -112l-224 151l-53 -284h-127l60 274l-269 -141z" />
<glyph unicode="+" horiz-adv-x="1193" d="M158 635l30 162h373l72 368h174l-74 -368h373l-31 -162h-373l-73 -367h-172l71 367h-370z" />
<glyph unicode="," horiz-adv-x="464" d="M-61 -303l139 307q-30 18 -48 48.5t-18 66.5q0 65 42.5 107t103.5 42q56 0 92.5 -37.5t36.5 -95.5q0 -53 -47 -131l-172 -307h-129z" />
<glyph unicode="-" horiz-adv-x="784" d="M106 477l33 170h551l-35 -170h-549z" />
<glyph unicode="." horiz-adv-x="464" d="M12 119q0 65 42.5 107t103.5 42q56 0 92.5 -37.5t36.5 -95.5q0 -64 -42.5 -105.5t-101.5 -41.5q-55 0 -93 38t-38 93z" />
<glyph unicode="/" horiz-adv-x="720" d="M-209 -205l1055 1929h188l-1054 -1929h-189z" />
<glyph unicode="0" horiz-adv-x="1363" d="M113 510q0 149 32.5 289t95.5 257.5t149.5 206t202 138t245.5 49.5q226 0 354.5 -139t128.5 -387q0 -186 -52 -356.5t-144 -300t-229 -206.5t-298 -77q-228 0 -356.5 139t-128.5 387zM317 514q0 -169 78 -258.5t219 -89.5q116 0 213.5 70.5t159 182t95.5 242.5t34 259 q0 168 -77.5 258t-217.5 90q-94 0 -176.5 -46.5t-141.5 -123t-101.5 -174.5t-63.5 -203t-21 -207z" />
<glyph unicode="1" horiz-adv-x="757" d="M160 1255l35 179h526l-287 -1434h-203l250 1255h-321z" />
<glyph unicode="2" horiz-adv-x="1175" d="M-33 0l29 139l698 559q142 115 196 196t54 171q0 97 -70 152t-210 55q-105 0 -202 -42t-169 -118l-137 119q91 101 232 160t304 59q214 0 335.5 -98.5t121.5 -259.5q0 -130 -70 -246.5t-248 -257.5l-516 -410h717l-35 -178h-1030z" />
<glyph unicode="3" horiz-adv-x="1171" d="M-53 164l106 158q62 -70 169.5 -113t238.5 -43q186 0 289.5 77t103.5 210q0 217 -315 217h-109l29 143l444 442h-686l37 179h946l-26 -140l-472 -467q171 -23 264 -118t93 -246q0 -212 -168 -345.5t-442 -133.5q-162 0 -294.5 47.5t-207.5 132.5z" />
<glyph unicode="4" horiz-adv-x="1370" d="M41 352l27 144l911 938h231l-872 -906h541l63 312h191l-62 -312h272l-34 -176h-275l-69 -352h-199l72 352h-797z" />
<glyph unicode="5" horiz-adv-x="1175" d="M-25 164l109 158q61 -70 168.5 -113t239.5 -43q185 0 288 77t103 214q0 227 -365 227h-348l223 750h809l-35 -179h-632l-119 -393h139q267 0 399.5 -101.5t132.5 -281.5q0 -223 -167.5 -359t-442.5 -136q-162 0 -294.5 47.5t-207.5 132.5z" />
<glyph unicode="6" horiz-adv-x="1263" d="M117 565q0 88 14 175t44.5 175t75.5 166t111.5 146t147.5 117.5t187.5 77.5t228.5 28q228 0 358 -84l-94 -162q-104 70 -279 70q-108 0 -199 -31.5t-155.5 -85t-112.5 -126.5t-75 -152.5t-37 -167.5q135 159 395 159q128 0 231.5 -46t167.5 -140.5t64 -222.5 q0 -216 -148.5 -346.5t-379.5 -130.5q-120 0 -219.5 37.5t-172.5 109t-113 182.5t-40 252zM336 416q0 -108 85.5 -187t235.5 -79q148 0 239 80.5t91 218.5q0 121 -83.5 188.5t-221.5 67.5q-155 0 -250.5 -81.5t-95.5 -207.5z" />
<glyph unicode="7" horiz-adv-x="1224" d="M154 999l86 435h1081l-27 -140l-831 -1294h-225l809 1255h-646l-51 -256h-196z" />
<glyph unicode="8" horiz-adv-x="1318" d="M61 373q0 149 85.5 252t244.5 147q-145 91 -145 262q0 191 148 303.5t390 112.5q226 0 362 -96.5t136 -261.5q0 -130 -69 -222.5t-199 -138.5q186 -97 186 -299q0 -205 -163 -326.5t-431 -121.5q-252 0 -398.5 104.5t-146.5 284.5zM266 389q0 -111 92.5 -175t253.5 -64 q178 0 280.5 75.5t102.5 206.5q0 109 -92 172.5t-254 63.5q-177 0 -280 -75t-103 -204zM446 1032q0 -96 80.5 -152.5t221.5 -56.5q153 0 243 66.5t90 179.5q0 99 -82 157t-221 58q-150 0 -241 -68t-91 -184z" />
<glyph unicode="9" horiz-adv-x="1263" d="M49 68l94 161q103 -69 279 -69q134 0 241 47t175.5 128t108.5 177.5t54 206.5q-135 -156 -393 -156q-129 0 -233 46.5t-168 141t-64 222.5q0 216 150 346.5t381 130.5q120 0 219.5 -37.5t172.5 -109.5t113 -183t40 -252q0 -88 -14 -175t-44.5 -174.5t-75.5 -166 t-111.5 -146.5t-147.5 -117t-187.5 -77t-228.5 -28q-231 0 -361 84zM348 985q0 -121 83.5 -188.5t221.5 -67.5q155 0 250.5 81.5t95.5 207.5q0 107 -86 186.5t-235 79.5q-148 0 -239 -80.5t-91 -218.5z" />
<glyph unicode=":" horiz-adv-x="464" d="M12 119q0 65 42.5 107t103.5 42q56 0 92.5 -37.5t36.5 -95.5q0 -64 -42.5 -105.5t-101.5 -41.5q-55 0 -93 38t-38 93zM178 946q0 65 42.5 107.5t103.5 42.5q56 0 92.5 -37.5t36.5 -95.5q0 -64 -42.5 -106t-101.5 -42q-55 0 -93 37.5t-38 93.5z" />
<glyph unicode=";" horiz-adv-x="464" d="M-61 -303l139 307q-30 18 -48 48.5t-18 66.5q0 65 42.5 107t103.5 42q56 0 92.5 -37.5t36.5 -95.5q0 -53 -47 -131l-172 -307h-129zM178 946q0 65 42.5 107.5t103.5 42.5q56 0 92.5 -37.5t36.5 -95.5q0 -64 -42.5 -106t-101.5 -42q-55 0 -93 37.5t-38 93.5z" />
<glyph unicode="&#x3c;" horiz-adv-x="1191" d="M156 629l34 176l988 362l-37 -178l-787 -280l678 -283l-33 -160z" />
<glyph unicode="=" horiz-adv-x="1191" d="M109 393l32 162h916l-33 -162h-915zM205 877l33 161h915l-33 -161h-915z" />
<glyph unicode="&#x3e;" horiz-adv-x="1191" d="M86 266l37 178l782 281l-672 283l33 159l842 -362l-37 -176z" />
<glyph unicode="?" horiz-adv-x="1173" d="M152 1229q187 221 548 221q203 0 321 -88t118 -240q0 -77 -23 -140t-61 -107.5t-84.5 -82.5t-96 -73.5t-93.5 -72t-79 -86t-49 -107.5h-204q13 70 47.5 129t78 100t93 78.5t96.5 71.5t85.5 70t61.5 83t23 102q0 89 -68.5 139t-195.5 50q-240 0 -389 -164zM352 111 q0 61 39.5 100t97.5 39q55 0 91 -35t36 -86q0 -60 -39.5 -100.5t-97.5 -40.5q-55 0 -91 36t-36 87z" />
<glyph unicode="@" horiz-adv-x="2117" d="M82 356q0 227 80.5 427t224 347t354 232.5t457.5 85.5q197 0 354.5 -54t262.5 -152t161 -235.5t56 -304.5q0 -187 -59 -350.5t-166.5 -263.5t-237.5 -100q-93 0 -154 40t-76 111q-148 -151 -387 -151q-196 0 -320 119.5t-124 318.5q0 169 72.5 308t205.5 220.5t299 81.5 q270 0 371 -192l37 184h178l-147 -741q-6 -27 -6 -49q0 -95 98 -95q79 0 145 84t100.5 210t34.5 259q0 286 -183.5 451.5t-530.5 165.5q-212 0 -391.5 -74.5t-301.5 -202t-190 -300.5t-68 -369q0 -292 180.5 -467.5t508.5 -175.5q222 0 393 83l30 -133q-194 -88 -436 -88 q-191 0 -347 56.5t-260.5 158t-161 243.5t-56.5 312zM688 438q0 -140 80.5 -215.5t224.5 -75.5q179 0 293.5 126t114.5 317q0 139 -81.5 214t-227.5 75q-176 0 -290 -123.5t-114 -317.5z" />
<glyph unicode="A" horiz-adv-x="1499" d="M-111 0l938 1434h203l363 -1434h-203l-86 358h-766l-227 -358h-222zM442 522h621l-170 707z" />
<glyph unicode="B" horiz-adv-x="1550" d="M106 0l287 1434h635q217 0 335 -81t118 -235q0 -139 -72 -236.5t-192 -142.5q96 -33 149 -106.5t53 -183.5q0 -218 -167 -333.5t-455 -115.5h-691zM344 166h467q195 0 300.5 72t105.5 208q0 105 -74.5 151t-224.5 46h-480zM471 809h420q174 0 275.5 70.5t101.5 205.5 q0 92 -73.5 137.5t-209.5 45.5h-422z" />
<glyph unicode="C" horiz-adv-x="1480" d="M123 588q0 178 62.5 335.5t174.5 274.5t278 184.5t363 67.5q179 0 316.5 -58t210.5 -165l-148 -127q-129 168 -393 168q-149 0 -274.5 -53.5t-208.5 -145.5t-129.5 -213t-46.5 -256q0 -200 127.5 -317t365.5 -117q264 0 434 170l119 -135q-98 -107 -245 -162t-322 -55 q-319 0 -501.5 165.5t-182.5 438.5z" />
<glyph unicode="D" horiz-adv-x="1691" d="M106 0l287 1434h561q322 0 504 -159t182 -429q0 -251 -110.5 -443t-313 -297.5t-468.5 -105.5h-642zM346 178h408q155 0 283.5 49.5t215 136.5t134 207.5t47.5 262.5q0 198 -127 309.5t-373 111.5h-373z" />
<glyph unicode="E" horiz-adv-x="1372" d="M106 0l287 1434h1012l-35 -179h-809l-88 -440h721l-35 -174h-721l-92 -463h838l-35 -178h-1043z" />
<glyph unicode="F" horiz-adv-x="1300" d="M106 0l287 1434h1012l-35 -179h-809l-100 -499h721l-35 -176h-721l-115 -580h-205z" />
<glyph unicode="G" horiz-adv-x="1581" d="M123 588q0 142 39.5 272.5t116 237.5t182.5 186t246 122.5t299 43.5q186 0 326.5 -57t226.5 -164l-148 -125q-139 164 -414 164q-200 0 -354 -90t-234.5 -241t-80.5 -337q0 -199 129 -316.5t372 -117.5q178 0 324 90l92 469h197l-113 -563q-103 -85 -239.5 -131.5 t-282.5 -46.5q-316 0 -500 165.5t-184 438.5z" />
<glyph unicode="H" horiz-adv-x="1662" d="M106 0l287 1434h205l-123 -615h823l123 615h205l-287 -1434h-204l127 635h-824l-127 -635h-205z" />
<glyph unicode="I" horiz-adv-x="634" d="M106 0l287 1434h205l-287 -1434h-205z" />
<glyph unicode="J" horiz-adv-x="1050" d="M-84 193l141 133q40 -79 112.5 -122.5t166.5 -43.5q120 0 191.5 66t101.5 214l162 815h-519l37 179h717l-197 -985q-50 -250 -170 -357.5t-327 -107.5q-146 0 -253.5 55t-162.5 154z" />
<glyph unicode="K" horiz-adv-x="1472" d="M106 0l287 1434h205l-158 -793l918 793h266l-772 -666l-4 -4l518 -764h-229l-437 643l-315 -270l-74 -373h-205z" />
<glyph unicode="L" horiz-adv-x="1216" d="M106 0l287 1434h205l-252 -1256h778l-34 -178h-984z" />
<glyph unicode="M" horiz-adv-x="1955" d="M106 0l287 1434h166l399 -1010l785 1010h176l-287 -1434h-196l209 1036l-678 -862h-95l-358 883l-211 -1057h-197z" />
<glyph unicode="N" horiz-adv-x="1662" d="M106 0l287 1434h168l641 -1104l219 1104h205l-287 -1434h-168l-641 1104l-219 -1104h-205z" />
<glyph unicode="O" horiz-adv-x="1720" d="M123 588q0 178 62.5 336t174 274.5t275.5 184t358 67.5q316 0 496 -165.5t180 -438.5q0 -178 -62.5 -336t-174.5 -274t-276.5 -184t-358.5 -68q-316 0 -495 165.5t-179 438.5zM328 600q0 -198 127 -316t360 -118q145 0 268 54t205 145t128 212.5t46 256.5q0 198 -126 316 t-359 118q-145 0 -268 -54t-206 -145t-129 -212.5t-46 -256.5z" />
<glyph unicode="P" horiz-adv-x="1478" d="M106 0l287 1434h533q250 0 388 -110t138 -310q0 -274 -179.5 -427t-492.5 -153h-383l-86 -434h-205zM434 612h350q222 0 342.5 98t120.5 285q0 128 -88 194t-252 66h-344z" />
<glyph unicode="Q" horiz-adv-x="1720" d="M123 588q0 178 62.5 336t174 274.5t275.5 184t358 67.5q316 0 496 -165.5t180 -438.5q0 -212 -85.5 -392t-247.5 -301.5t-375 -156.5q98 -133 253 -133q74 0 143.5 29.5t121.5 84.5l84 -124q-62 -75 -155 -113.5t-200 -38.5q-304 0 -499 287q-277 23 -431.5 184.5 t-154.5 415.5zM328 600q0 -198 127 -316t360 -118q145 0 268 54t205 145t128 212.5t46 256.5q0 198 -126 316t-359 118q-145 0 -268 -54t-206 -145t-129 -212.5t-46 -256.5z" />
<glyph unicode="R" horiz-adv-x="1488" d="M106 0l287 1434h535q252 0 390 -110t138 -310q0 -212 -112.5 -353t-317.5 -194l262 -467h-217l-250 438h-39h-383l-86 -438h-207zM434 612h354q222 0 342.5 98t120.5 285q0 128 -88 194t-254 66h-346z" />
<glyph unicode="S" horiz-adv-x="1271" d="M12 158l90 164q82 -75 207 -119.5t258 -44.5q176 0 281.5 64t105.5 179q0 48 -25 84.5t-67.5 60t-98 43t-116.5 37t-121.5 37.5t-116 49t-98 66.5t-67.5 96t-25 131.5q0 203 165 323.5t431 120.5q133 0 253.5 -31.5t207.5 -89.5l-82 -168q-160 115 -389 115 q-176 0 -280.5 -69t-104.5 -183q0 -61 40.5 -104.5t105.5 -69.5t143 -48.5t156.5 -50t143.5 -65t105.5 -103t40.5 -153.5q0 -206 -167.5 -326t-438.5 -120q-161 0 -309 49.5t-228 124.5z" />
<glyph unicode="T" horiz-adv-x="1202" d="M152 1255l34 179h1186l-37 -179h-489l-252 -1255h-203l250 1255h-489z" />
<glyph unicode="U" horiz-adv-x="1619" d="M203 463q0 67 16 155l162 816h205l-164 -813q-14 -69 -14 -136q0 -157 90.5 -238t261.5 -81q192 0 308 111t163 346l162 811h200l-163 -826q-125 -624 -689 -624q-254 0 -396 127t-142 352z" />
<glyph unicode="V" horiz-adv-x="1458" d="M176 1434h211l279 -1180l759 1180h213l-917 -1434h-201z" />
<glyph unicode="W" horiz-adv-x="2306" d="M244 1434h200l156 -1170l635 1170h190l160 -1172l631 1172h205l-766 -1434h-217l-160 1139l-625 -1139h-217z" />
<glyph unicode="X" horiz-adv-x="1378" d="M-80 0l696 745l-376 689h215l297 -547l510 547h233l-655 -703l401 -731h-219l-317 586l-539 -586h-246z" />
<glyph unicode="Y" horiz-adv-x="1325" d="M172 1434h201l309 -760l612 760h217l-757 -945l-99 -489h-204l100 502z" />
<glyph unicode="Z" horiz-adv-x="1345" d="M-23 0l29 139l1112 1116h-870l37 179h1155l-29 -140l-1112 -1116h913l-36 -178h-1199z" />
<glyph unicode="[" horiz-adv-x="684" d="M25 -397l383 1917h428l-33 -166h-230l-317 -1585h231l-32 -166h-430z" />
<glyph unicode="\" horiz-adv-x="720" d="M160 1724h170l297 -1929h-170z" />
<glyph unicode="]" horiz-adv-x="681" d="M-145 -397l30 166h232l315 1585h-229l33 166h430l-383 -1917h-428z" />
<glyph unicode="^" horiz-adv-x="1193" d="M106 291l529 852h164l190 -852h-147l-148 690l-424 -690h-164z" />
<glyph unicode="_" horiz-adv-x="1024" d="M-133 -127l24 127h1024l-24 -127h-1024z" />
<glyph unicode="`" horiz-adv-x="1228" d="M432 1509h248l229 -266h-186z" />
<glyph unicode="a" d="M78 457q0 184 79.5 330t220 227.5t314.5 81.5q139 0 238.5 -50t152.5 -145l37 184h197l-215 -1085h-189l27 133q-151 -145 -383 -145q-211 0 -345 126.5t-134 342.5zM276 465q0 -143 85 -224t239 -81q185 0 304.5 128.5t119.5 329.5q0 145 -84.5 225.5t-239.5 80.5 q-184 0 -304 -129.5t-120 -329.5z" />
<glyph unicode="b" d="M80 0l303 1520h197l-113 -559q151 135 373 135q211 0 345 -125.5t134 -341.5q0 -184 -79.5 -330.5t-220 -228.5t-314.5 -82q-144 0 -245.5 53.5t-152.5 155.5l-41 -197h-186zM373 465q0 -144 84.5 -224.5t238.5 -80.5q184 0 304 129t120 329q0 145 -84 225.5t-239 80.5 q-185 0 -304.5 -129t-119.5 -330z" />
<glyph unicode="c" horiz-adv-x="1169" d="M78 457q0 182 81.5 327.5t227.5 228.5t330 83q321 0 446 -236l-166 -92q-86 156 -295 156q-185 0 -305.5 -129.5t-120.5 -329.5q0 -144 85 -224.5t241 -80.5q99 0 183.5 39t140.5 114l143 -102q-75 -104 -202 -163.5t-273 -59.5q-236 0 -376 128t-140 341z" />
<glyph unicode="d" d="M78 457q0 184 79.5 330t220 227.5t314.5 81.5q140 0 240.5 -50t152.5 -147l123 621h197l-303 -1520h-189l27 133q-151 -145 -383 -145q-211 0 -345 126.5t-134 342.5zM276 465q0 -143 85 -224t239 -81q185 0 304.5 128.5t119.5 329.5q0 145 -84.5 225.5t-239.5 80.5 q-184 0 -304 -129.5t-120 -329.5z" />
<glyph unicode="e" horiz-adv-x="1251" d="M78 459q0 182 78.5 327.5t218.5 227.5t315 82q222 0 354 -125.5t132 -343.5q0 -62 -15 -146h-891v-12q0 -151 85.5 -230t258.5 -79q100 0 188.5 33.5t147.5 91.5l84 -142q-78 -74 -194 -114.5t-242 -40.5q-241 0 -380.5 127.5t-139.5 343.5zM291 625h700q1 11 1 22 q0 131 -78 205q-84 80 -232 80q-147 0 -250.5 -82.5t-140.5 -224.5z" />
<glyph unicode="f" horiz-adv-x="722" d="M106 0l187 924h-187l31 161h189l20 103q33 165 135 254.5t267 89.5q143 0 227 -68l-82 -145q-57 51 -145 51q-89 0 -140 -48.5t-73 -150.5l-19 -86h315l-32 -161h-310l-186 -924h-197z" />
<glyph unicode="g" horiz-adv-x="1413" d="M2 -256l109 152q65 -60 171 -96t230 -36q189 0 292.5 86.5t139.5 266.5l17 78q-156 -150 -394 -150q-217 0 -350 119.5t-133 322.5q0 171 78.5 310t220 219t319.5 80q139 0 246.5 -52.5t159.5 -156.5l39 198h186l-186 -938q-58 -291 -216.5 -424t-432.5 -133 q-312 0 -496 154zM283 500q0 -132 85.5 -207.5t237.5 -75.5q186 0 306 120t120 306q0 131 -85 206t-238 75q-186 0 -306 -119.5t-120 -304.5z" />
<glyph unicode="h" horiz-adv-x="1394" d="M80 0l303 1520h197l-113 -562q147 138 383 138q186 0 289.5 -94.5t103.5 -266.5q0 -59 -12 -127l-121 -608h-197l121 608q10 55 10 90q0 108 -62.5 165t-188.5 57q-160 0 -263.5 -87.5t-138.5 -259.5l-115 -573h-196z" />
<glyph unicode="i" horiz-adv-x="571" d="M80 0l215 1085h197l-216 -1085h-196zM328 1413q0 58 39.5 97.5t101.5 39.5q53 0 89 -33.5t36 -80.5q0 -63 -40 -102.5t-103 -39.5q-53 0 -88 34.5t-35 84.5z" />
<glyph unicode="j" horiz-adv-x="581" d="M-362 -344l86 151q63 -51 155 -51q82 0 129.5 46t67.5 147l227 1136h197l-228 -1136q-71 -359 -395 -359q-148 0 -239 66zM336 1413q0 58 39.5 97.5t101.5 39.5q53 0 89 -33.5t36 -80.5q0 -63 -40 -102.5t-103 -39.5q-53 0 -88 34.5t-35 84.5z" />
<glyph unicode="k" horiz-adv-x="1241" d="M80 0l303 1520h197l-193 -967l674 532h276l-579 -456l387 -629h-227l-314 512l-266 -207l-62 -305h-196z" />
<glyph unicode="l" horiz-adv-x="571" d="M80 0l303 1520h197l-304 -1520h-196z" />
<glyph unicode="m" horiz-adv-x="2164" d="M80 0l215 1085h188l-26 -135q143 146 377 146q128 0 217.5 -49.5t130.5 -143.5q166 193 442 193q185 0 288 -94t103 -265q0 -47 -14 -129l-121 -608h-197l121 608q11 64 11 94q0 106 -60 162t-180 56q-151 0 -248.5 -85t-132.5 -255l-117 -580h-196l123 608q10 55 10 92 q0 106 -60.5 163t-181.5 57q-152 0 -249 -87t-132 -260l-115 -573h-196z" />
<glyph unicode="n" horiz-adv-x="1394" d="M80 0l215 1085h188l-26 -139q147 150 393 150q186 0 289.5 -94.5t103.5 -266.5q0 -59 -12 -127l-121 -608h-197l121 608q10 55 10 90q0 108 -62.5 165t-188.5 57q-160 0 -263.5 -87.5t-138.5 -259.5l-115 -573h-196z" />
<glyph unicode="o" horiz-adv-x="1300" d="M78 457q0 181 81.5 327t227 229t328.5 83q232 0 370 -126.5t138 -340.5q0 -183 -81 -329t-226 -229t-328 -83q-232 0 -371 128.5t-139 340.5zM276 465q0 -143 85 -224t239 -81q185 0 304.5 128.5t119.5 329.5q0 145 -84.5 225.5t-239.5 80.5q-184 0 -304 -129.5 t-120 -329.5z" />
<glyph unicode="p" d="M0 -397l295 1482h188l-26 -135q152 146 383 146q211 0 345 -125.5t134 -341.5q0 -184 -79.5 -330.5t-220 -228.5t-314.5 -82q-139 0 -240 50.5t-154 145.5l-114 -581h-197zM373 465q0 -144 84.5 -224.5t238.5 -80.5q184 0 304 129t120 329q0 145 -84 225.5t-239 80.5 q-185 0 -304.5 -129t-119.5 -330z" />
<glyph unicode="q" d="M78 457q0 184 79.5 330t220 227.5t314.5 81.5q144 0 245.5 -53t152.5 -154l40 196h187l-295 -1482h-197l103 518q-149 -133 -371 -133q-211 0 -345 126.5t-134 342.5zM276 465q0 -143 85 -224t239 -81q185 0 304.5 128.5t119.5 329.5q0 145 -84.5 225.5t-239.5 80.5 q-184 0 -304 -129.5t-120 -329.5z" />
<glyph unicode="r" horiz-adv-x="839" d="M80 0l215 1085h188l-30 -161q72 91 176.5 131.5t253.5 40.5l-37 -191q-18 2 -51 2q-339 0 -410 -364l-109 -543h-196z" />
<glyph unicode="s" horiz-adv-x="1026" d="M-25 113l88 155q63 -51 164.5 -80.5t212.5 -29.5q139 0 212 41.5t73 117.5q0 38 -26 64t-68 39.5t-96.5 27t-110.5 24t-110.5 31.5t-96.5 48.5t-68 76.5t-26 115q0 161 134 257t357 96q108 0 210.5 -26.5t168.5 -72.5l-78 -155q-124 86 -319 86q-133 0 -205 -44.5 t-72 -117.5q0 -44 33 -73t86 -44.5t117.5 -28t128.5 -31t117 -45.5t86 -79t33 -125q0 -166 -136 -259t-362 -93q-135 0 -257.5 35t-189.5 90z" />
<glyph unicode="t" horiz-adv-x="847" d="M106 924l31 161h187l47 238h196l-47 -238h311l-32 -161h-312l-116 -578q-6 -30 -6 -57q0 -65 35.5 -100t107.5 -35q86 0 156 51l41 -150q-97 -67 -252 -67q-129 0 -208 73t-79 199q0 43 8 82l117 582h-185z" />
<glyph unicode="u" horiz-adv-x="1386" d="M152 352q0 57 12 125l121 608h196l-121 -610q-10 -55 -10 -92q0 -106 62.5 -162.5t185.5 -56.5q156 0 259 87.5t138 258.5l115 575h197l-215 -1085h-189l27 139q-148 -151 -389 -151q-180 0 -284.5 96t-104.5 268z" />
<glyph unicode="v" horiz-adv-x="1144" d="M104 1085h197l203 -870l553 870h198l-690 -1085h-200z" />
<glyph unicode="w" horiz-adv-x="1845" d="M115 1085h178l160 -860l491 860h168l164 -860l485 860h187l-609 -1085h-192l-166 821l-471 -821h-188z" />
<glyph unicode="x" horiz-adv-x="1130" d="M-82 0l547 561l-299 524h205l221 -393l377 393h223l-520 -538l315 -547h-209l-233 418l-398 -418h-229z" />
<glyph unicode="y" horiz-adv-x="1144" d="M-209 -313l103 145q74 -74 184 -74q69 0 122 36.5t111 125.5l56 86l-263 1079h197l209 -868l547 868h198l-770 -1204q-104 -163 -198.5 -227t-223.5 -64q-80 0 -155 26t-117 71z" />
<glyph unicode="z" horiz-adv-x="1067" d="M-29 0l27 127l790 797h-614l31 161h878l-26 -129l-791 -794h647l-32 -162h-910z" />
<glyph unicode="{" horiz-adv-x="720" d="M106 479l31 164h72q90 0 110 102l99 484q30 151 116.5 221t249.5 70h90l-32 -166h-49q-155 0 -183 -146l-92 -458q-19 -90 -51.5 -132t-97.5 -59q80 -30 80 -125q0 -21 -7 -61l-86 -432q-6 -30 -6 -56q0 -58 32 -87t89 -29h53l-32 -166h-91q-120 0 -187 61t-67 174 q0 38 9 82l92 457q4 24 4 33q0 69 -74 69h-72z" />
<glyph unicode="|" horiz-adv-x="612" d="M27 -397l383 1917h182l-383 -1917h-182z" />
<glyph unicode="}" horiz-adv-x="720" d="M-147 -397l32 166h49q81 0 125 36.5t58 108.5l92 459q19 91 51.5 133t97.5 57q-79 30 -79 125q0 28 6 62l86 432q6 30 6 55q0 58 -32 87.5t-89 29.5h-53l33 166h90q120 0 187 -61.5t67 -174.5q0 -38 -9 -82l-92 -457q-4 -24 -4 -32q0 -70 74 -70h72l-31 -164h-72 q-90 0 -110 -102l-99 -483q-30 -151 -116.5 -221t-249.5 -70h-90z" />
<glyph unicode="~" horiz-adv-x="1191" d="M125 557q24 163 109.5 249.5t197.5 86.5q60 0 110 -20.5t83.5 -49.5t63.5 -58.5t65 -50t73 -20.5q68 0 117 50.5t68 136.5h127q-25 -164 -109.5 -251t-195.5 -87q-60 0 -110 20.5t-84 49.5t-64.5 58t-66 49.5t-73.5 20.5q-68 0 -116.5 -49t-65.5 -135h-129z" />
<glyph unicode="&#xa1;" horiz-adv-x="548" d="M-14 -315l229 948h154l-152 -948h-231zM225 954q0 60 40.5 101t99.5 41q55 0 91 -35.5t36 -87.5q0 -60 -39.5 -99.5t-98.5 -39.5q-56 0 -92.5 35t-36.5 85z" />
<glyph unicode="&#xa2;" horiz-adv-x="1169" d="M78 457q0 268 170 447.5t436 191.5l47 235h133l-49 -241q244 -35 348 -230l-166 -92q-67 125 -215 150l-151 -758q90 6 167 45t128 108l143 -102q-75 -104 -201.5 -163.5t-271.5 -59.5l-47 -234h-131l49 244q-182 34 -285.5 156t-103.5 303zM276 465q0 -118 58 -194 t166 -101l149 752q-164 -20 -268.5 -146.5t-104.5 -310.5z" />
<glyph unicode="&#xa3;" horiz-adv-x="1323" d="M-47 0l37 178h223l94 471h-227l29 135h225l26 134q27 135 90 238t153 166.5t198 95.5t233 32q272 0 410 -109l-90 -163q-126 90 -332 90q-194 0 -309 -88.5t-152 -282.5l-22 -113h542l-26 -135h-543l-94 -471h770l-37 -178h-1198z" />
<glyph unicode="&#xa4;" horiz-adv-x="1433" d="M86 117l209 211q-113 145 -113 325t109 324l-205 207l111 121l215 -213q145 104 325 104q177 0 326 -102l213 211l115 -121l-207 -205q110 -145 110 -326t-114 -327l211 -209l-115 -121l-217 215q-148 -98 -322 -98q-178 0 -321 100l-219 -217zM344 653 q0 -156 115.5 -267.5t277.5 -111.5q163 0 281.5 112t118.5 267q0 156 -118.5 268.5t-281.5 112.5t-278 -112t-115 -269z" />
<glyph unicode="&#xa5;" horiz-adv-x="1447" d="M129 240l25 116h432l32 166h-432l25 117h383l-422 795h209l377 -725l661 725h215l-725 -795h367l-25 -117h-430l-33 -166h431l-25 -116h-430l-47 -240h-203l47 240h-432z" />
<glyph unicode="&#xa6;" horiz-adv-x="612" d="M27 -397l143 716h182l-143 -716h-182zM266 803l144 717h182l-143 -717h-183z" />
<glyph unicode="&#xa7;" horiz-adv-x="1024" d="M-68 -86l82 147q139 -118 342 -118q135 0 215 54t80 136q0 46 -31.5 78.5t-81.5 51t-110 35t-120.5 38t-110.5 52t-81.5 84.5t-31.5 128q0 95 60 176.5t159 128.5q-74 67 -74 185q0 160 141 258t365 98q108 0 214 -27t171 -76l-80 -147q-129 92 -319 92 q-149 0 -232 -54.5t-83 -135.5q0 -42 24 -72.5t64 -47t90.5 -33t103 -29t103 -35.5t90.5 -52t64 -80t24 -118q0 -100 -59 -179.5t-158 -125.5q75 -69 75 -185q0 -160 -137.5 -259t-357.5 -99q-120 0 -225.5 34.5t-174.5 96.5zM256 616q0 -33 15.5 -59t38 -43t60.5 -32.5 t71 -24.5t82 -23.5t81 -25.5q92 28 142.5 81.5t50.5 122.5q0 34 -15.5 61.5t-37.5 44.5t-60 32.5t-70 24.5t-81 22.5t-80 23.5q-93 -29 -145 -83t-52 -122z" />
<glyph unicode="&#xa8;" horiz-adv-x="1228" d="M487 1372q0 51 32.5 84t78.5 33q42 0 70 -27t28 -69q0 -50 -32.5 -82.5t-77.5 -32.5q-42 0 -70.5 26.5t-28.5 67.5zM866 1372q0 51 33 84t80 33q41 0 69.5 -27t28.5 -69q0 -50 -32.5 -82.5t-79.5 -32.5q-41 0 -70 27t-29 67z" />
<glyph unicode="&#xa9;" horiz-adv-x="1642" d="M133 717q0 149 56 282.5t151.5 230.5t230.5 153.5t287 56.5t286 -55.5t229.5 -151t150.5 -228.5t55 -284t-56.5 -285.5t-152.5 -231.5t-231 -153.5t-285 -56.5t-284 56.5t-230 153.5t-151.5 230.5t-55.5 282.5zM229 717q0 -174 81.5 -318.5t225 -228.5t318.5 -84 t319.5 84t227 229.5t82.5 321.5t-80.5 319.5t-224 225.5t-320.5 82t-321.5 -84t-226 -228.5t-81.5 -318.5zM446 717q0 186 121 304t310 118q107 0 193.5 -44.5t137.5 -121.5l-116 -84q-74 110 -218 110q-119 0 -196.5 -77.5t-77.5 -204.5t77.5 -205t196.5 -78q144 0 218 111 l116 -82q-50 -78 -137 -123t-194 -45q-189 0 -310 118t-121 304z" />
<glyph unicode="&#xaa;" horiz-adv-x="829" d="M178 1038q0 102 82.5 156.5t220.5 54.5h217l2 15q5 35 5 39q0 58 -41 88t-117 30q-63 0 -126 -17.5t-108 -49.5l-39 94q54 38 133.5 60t161.5 22q133 0 205 -53.5t72 -157.5q0 -20 -8 -70l-76 -372h-131l16 79q-88 -88 -233 -88q-110 0 -173 49t-63 121zM315 1053 q0 -40 34.5 -63t99.5 -23q130 0 208 90l23 104h-195q-170 0 -170 -108z" />
<glyph unicode="&#xab;" horiz-adv-x="1032" d="M94 543l373 393h184l-364 -401l198 -383h-176zM487 543l373 393h184l-364 -401l199 -383h-177z" />
<glyph unicode="&#xac;" horiz-adv-x="1196" d="M158 637l30 162h918l-102 -527h-175l74 365h-745z" />
<glyph unicode="&#xad;" horiz-adv-x="784" d="M106 477l33 170h551l-35 -170h-549z" />
<glyph unicode="&#xae;" horiz-adv-x="1642" d="M133 717q0 149 56 282.5t151.5 230.5t230.5 153.5t287 56.5t286 -55.5t229.5 -151t150.5 -228.5t55 -284t-56.5 -285.5t-152.5 -231.5t-231 -153.5t-285 -56.5t-284 56.5t-230 153.5t-151.5 230.5t-55.5 282.5zM229 717q0 -174 81.5 -318.5t225 -228.5t318.5 -84 t319.5 84t227 229.5t82.5 321.5t-80.5 319.5t-224 225.5t-320.5 82t-321.5 -84t-226 -228.5t-81.5 -318.5zM565 307v819h328q155 0 243.5 -75t88.5 -203q0 -93 -44.5 -158t-127.5 -96l186 -287h-141l-170 262h-35h-188v-262h-140zM702 684h181q98 0 152.5 43t54.5 121 t-54 120t-153 42h-181v-326z" />
<glyph unicode="&#xaf;" horiz-adv-x="1228" d="M434 1315l23 123h669l-24 -123h-668z" />
<glyph unicode="&#xb0;" horiz-adv-x="856" d="M207 1114q0 138 98 235t240 97q141 0 238.5 -97t97.5 -235q0 -140 -97.5 -237t-238.5 -97q-142 0 -240 97t-98 237zM322 1114q0 -96 63.5 -159.5t159.5 -63.5q94 0 157.5 64t63.5 159t-63.5 159t-157.5 64q-96 0 -159.5 -63.5t-63.5 -159.5z" />
<glyph unicode="&#xb1;" horiz-adv-x="1191" d="M31 0l30 166h918l-33 -166h-915zM174 735l33 162h371l71 356h172l-71 -356h372l-32 -162h-371l-72 -356h-172l72 356h-373z" />
<glyph unicode="&#xb2;" horiz-adv-x="880" d="M117 670l18 92l443 319q96 68 130.5 113.5t34.5 95.5q0 56 -46.5 86.5t-135.5 30.5q-152 0 -248 -90l-88 80q124 133 355 133q143 0 226 -61.5t83 -163.5q0 -75 -42.5 -139t-172.5 -158l-303 -220h454l-22 -118h-686z" />
<glyph unicode="&#xb3;" horiz-adv-x="880" d="M111 766l63 108q51 -42 127.5 -67t163.5 -25q117 0 183.5 41t66.5 117q0 119 -183 119h-108l20 96l271 246h-463l24 119h658l-19 -93l-288 -262q112 -12 171.5 -69.5t59.5 -145.5q0 -134 -110 -212.5t-293 -78.5q-110 0 -203.5 30t-140.5 77z" />
<glyph unicode="&#xb4;" horiz-adv-x="1228" d="M596 1243l309 266h256l-373 -266h-192z" />
<glyph unicode="&#xb5;" d="M0 -397l295 1482h197l-121 -610q-11 -60 -11 -90q0 -106 62.5 -163.5t185.5 -57.5q156 0 259.5 87.5t138.5 258.5l114 575h197l-215 -1085h-189l27 137q-73 -74 -163.5 -111.5t-184.5 -37.5q-205 0 -295 112l-100 -497h-197z" />
<glyph unicode="&#xb6;" horiz-adv-x="1327" d="M156 1098q0 106 40 187.5t112.5 132.5t170 76.5t217.5 25.5h611l-344 -1725h-164l313 1571h-321l-314 -1571h-164l197 991q-157 5 -255.5 86.5t-98.5 225.5z" />
<glyph unicode="&#xb7;" horiz-adv-x="546" d="M139 553q0 64 42.5 105.5t101.5 41.5q57 0 94 -36.5t37 -94.5q0 -63 -43 -105t-101 -42q-56 0 -93.5 38t-37.5 93z" />
<glyph unicode="&#xb8;" horiz-adv-x="1228" d="M199 -414l51 101q60 -35 141 -35q63 0 96 24.5t33 65.5q0 72 -104 72h-54l91 200h112l-51 -114q70 -10 107.5 -49t37.5 -99q0 -97 -77.5 -154t-204.5 -57q-110 0 -178 45z" />
<glyph unicode="&#xb9;" horiz-adv-x="880" d="M188 670l23 114h238l124 621h-219l23 115h364l-147 -736h211l-21 -114h-596z" />
<glyph unicode="&#xba;" horiz-adv-x="858" d="M193 1159q0 161 116 266t295 105q145 0 234.5 -79.5t89.5 -207.5q0 -163 -116.5 -269t-293.5 -106q-146 0 -235.5 81t-89.5 210zM332 1163q0 -80 53.5 -128t142.5 -48q113 0 186.5 71t73.5 179q0 81 -54.5 128.5t-141.5 47.5q-116 0 -188 -71.5t-72 -178.5z" />
<glyph unicode="&#xbb;" horiz-adv-x="1034" d="M-12 152l366 397l-200 387h178l215 -393l-373 -391h-186zM381 152l367 397l-201 387h178l215 -393l-373 -391h-186z" />
<glyph unicode="&#xbc;" horiz-adv-x="2117" d="M172 584l23 114h237l125 621h-219l22 115h365l-147 -736h210l-20 -114h-596zM383 0l1253 1434h168l-1255 -1434h-166zM1214 203l19 96l516 551h166l-498 -528h303l35 170h129l-35 -170h172l-24 -119h-170l-41 -203h-141l43 203h-474z" />
<glyph unicode="&#xbd;" horiz-adv-x="2117" d="M172 584l23 114h237l125 621h-219l22 115h365l-147 -736h210l-20 -114h-596zM383 0l1253 1434h168l-1255 -1434h-166zM1221 0l18 92l442 320q96 68 131 114t35 95q0 56 -46.5 86t-135.5 30q-152 0 -248 -90l-88 80q123 133 354 133q143 0 226.5 -61.5t83.5 -163.5 q0 -75 -42.5 -139t-172.5 -158l-303 -219h454l-22 -119h-686z" />
<glyph unicode="&#xbe;" horiz-adv-x="2117" d="M94 680l64 108q51 -42 127.5 -67t163.5 -25q117 0 183 41t66 117q0 119 -182 119h-108l20 96l270 246h-462l24 119h658l-19 -93l-289 -262q112 -12 172 -69.5t60 -145.5q0 -134 -110.5 -212.5t-293.5 -78.5q-110 0 -203.5 30t-140.5 77zM383 0l1253 1434h168l-1255 -1434 h-166zM1214 203l19 96l516 551h166l-498 -528h303l35 170h129l-35 -170h172l-24 -119h-170l-41 -203h-141l43 203h-474z" />
<glyph unicode="&#xbf;" horiz-adv-x="1173" d="M39 -10q0 64 18 119t48 94.5t69 77t81 66.5t85 62t79 64t64.5 72.5t40.5 87.5h205q-12 -64 -45.5 -120t-77 -96.5t-93 -77.5t-97 -71t-86.5 -69.5t-62.5 -81.5t-23.5 -99q0 -80 70 -128t196 -48q242 0 387 164l131 -117q-90 -107 -230.5 -164t-318.5 -57q-202 0 -321 87 t-119 235zM561 956q0 59 39.5 99.5t97.5 40.5q55 0 91 -35.5t36 -87.5q0 -60 -39 -99.5t-98 -39.5q-55 0 -91 35t-36 87z" />
<glyph unicode="&#xc0;" horiz-adv-x="1499" d="M-111 0l938 1434h203l363 -1434h-203l-86 358h-766l-227 -358h-222zM442 522h621l-170 707zM629 1817h248l229 -267h-186z" />
<glyph unicode="&#xc1;" horiz-adv-x="1499" d="M-111 0l938 1434h203l363 -1434h-203l-86 358h-766l-227 -358h-222zM442 522h621l-170 707zM793 1550l309 267h256l-373 -267h-192z" />
<glyph unicode="&#xc2;" horiz-adv-x="1499" d="M-111 0l938 1434h203l363 -1434h-203l-86 358h-766l-227 -358h-222zM442 522h621l-170 707zM586 1550l305 267h186l240 -267h-172l-170 156l-207 -156h-182z" />
<glyph unicode="&#xc3;" horiz-adv-x="1499" d="M-111 0l938 1434h203l363 -1434h-203l-86 358h-766l-227 -358h-222zM442 522h621l-170 707zM614 1567q19 118 79.5 184t148.5 66q44 0 85 -22t66.5 -48t58 -48t62.5 -22q44 0 75 34t40 89h110q-19 -114 -78.5 -179t-146.5 -65q-45 0 -86 21.5t-67 47.5t-58.5 47.5 t-62.5 21.5q-44 0 -74 -34.5t-39 -92.5h-113z" />
<glyph unicode="&#xc4;" horiz-adv-x="1499" d="M-111 0l938 1434h203l363 -1434h-203l-86 358h-766l-227 -358h-222zM442 522h621l-170 707zM684 1679q0 51 32.5 84t78.5 33q42 0 70 -27t28 -69q0 -50 -33 -82.5t-78 -32.5q-42 0 -70 26.5t-28 67.5zM1063 1679q0 51 33 84t80 33q41 0 69.5 -27t28.5 -69 q0 -50 -33 -82.5t-80 -32.5q-41 0 -69.5 26.5t-28.5 67.5z" />
<glyph unicode="&#xc5;" horiz-adv-x="1499" d="M-111 0l938 1434h203l363 -1434h-203l-86 358h-766l-227 -358h-222zM442 522h621l-170 707zM772 1786q0 93 65 159t160 66q96 0 162 -66t66 -159t-66 -157t-162 -64t-160.5 64t-64.5 157zM864 1786q0 -58 37.5 -96.5t95.5 -38.5q59 0 97.5 38.5t38.5 96.5q0 59 -39 98 t-97 39q-57 0 -95 -38.5t-38 -98.5z" />
<glyph unicode="&#xc6;" horiz-adv-x="2144" d="M-113 0l1133 1434h1159l-37 -179h-807l-88 -440h719l-35 -174h-719l-92 -463h838l-37 -178h-1038l71 358h-557l-280 -358h-230zM526 522h461l148 740h-29z" />
<glyph unicode="&#xc7;" horiz-adv-x="1480" d="M123 588q0 178 62.5 335.5t174.5 274.5t278 184.5t363 67.5q179 0 316.5 -58t210.5 -165l-148 -127q-129 168 -393 168q-149 0 -274.5 -53.5t-208.5 -145.5t-129.5 -213t-46.5 -256q0 -200 127.5 -317t365.5 -117q264 0 434 170l119 -135q-98 -107 -245 -162t-322 -55 h-27l-37 -84q70 -10 108 -49t38 -99q0 -97 -78 -154t-205 -57q-110 0 -178 45l51 101q60 -35 142 -35q63 0 96 24.5t33 65.5q0 72 -105 72h-53l80 178q-259 35 -404 195t-145 401z" />
<glyph unicode="&#xc8;" horiz-adv-x="1372" d="M106 0l287 1434h1012l-35 -179h-809l-88 -440h721l-35 -174h-721l-92 -463h838l-35 -178h-1043zM600 1817h248l229 -267h-186z" />
<glyph unicode="&#xc9;" horiz-adv-x="1372" d="M106 0l287 1434h1012l-35 -179h-809l-88 -440h721l-35 -174h-721l-92 -463h838l-35 -178h-1043zM764 1550l309 267h256l-373 -267h-192z" />
<glyph unicode="&#xca;" horiz-adv-x="1372" d="M106 0l287 1434h1012l-35 -179h-809l-88 -440h721l-35 -174h-721l-92 -463h838l-35 -178h-1043zM557 1550l305 267h187l239 -267h-172l-170 156l-207 -156h-182z" />
<glyph unicode="&#xcb;" horiz-adv-x="1372" d="M106 0l287 1434h1012l-35 -179h-809l-88 -440h721l-35 -174h-721l-92 -463h838l-35 -178h-1043zM655 1679q0 51 32.5 84t78.5 33q42 0 70 -27t28 -69q0 -50 -32.5 -82.5t-77.5 -32.5q-42 0 -70.5 26.5t-28.5 67.5zM1034 1679q0 51 33 84t80 33q41 0 69.5 -27t28.5 -69 q0 -50 -32.5 -82.5t-79.5 -32.5q-41 0 -70 27t-29 67z" />
<glyph unicode="&#xcc;" horiz-adv-x="634" d="M106 0l287 1434h205l-287 -1434h-205zM197 1817h247l230 -267h-187z" />
<glyph unicode="&#xcd;" horiz-adv-x="634" d="M106 0l287 1434h205l-287 -1434h-205zM360 1550l310 267h256l-373 -267h-193z" />
<glyph unicode="&#xce;" horiz-adv-x="634" d="M106 0l287 1434h205l-287 -1434h-205zM154 1550l305 267h186l240 -267h-172l-170 156l-207 -156h-182z" />
<glyph unicode="&#xcf;" horiz-adv-x="634" d="M106 0l287 1434h205l-287 -1434h-205zM252 1679q0 51 32.5 84t77.5 33q42 0 70.5 -27t28.5 -69q0 -50 -33 -82.5t-78 -32.5q-42 0 -70 26.5t-28 67.5zM631 1679q0 51 32.5 84t79.5 33q41 0 70 -27t29 -69q0 -50 -33 -82.5t-80 -32.5q-41 0 -69.5 26.5t-28.5 67.5z" />
<glyph unicode="&#xd0;" horiz-adv-x="1708" d="M41 649l33 162h211l125 623h561q322 0 504 -159t182 -429q0 -188 -64.5 -345.5t-180.5 -267.5t-282.5 -171.5t-365.5 -61.5h-641l129 649h-211zM362 178h408q155 0 283.5 49.5t215 136.5t134 207.5t47.5 262.5q0 198 -127 309.5t-373 111.5h-372l-89 -444h404l-31 -162 h-405z" />
<glyph unicode="&#xd1;" horiz-adv-x="1662" d="M106 0l287 1434h168l641 -1104l219 1104h205l-287 -1434h-168l-641 1104l-219 -1104h-205zM696 1567q19 118 79.5 184t148.5 66q44 0 85 -22t66.5 -48t58 -48t62.5 -22q44 0 75 34t40 89h110q-19 -114 -78.5 -179t-146.5 -65q-45 0 -86 21.5t-67 47.5t-58.5 47.5 t-62.5 21.5q-44 0 -74 -34.5t-39 -92.5h-113z" />
<glyph unicode="&#xd2;" horiz-adv-x="1720" d="M123 588q0 178 62.5 336t174 274.5t275.5 184t358 67.5q316 0 496 -165.5t180 -438.5q0 -178 -62.5 -336t-174.5 -274t-276.5 -184t-358.5 -68q-316 0 -495 165.5t-179 438.5zM328 600q0 -198 127 -316t360 -118q145 0 268 54t205 145t128 212.5t46 256.5q0 198 -126 316 t-359 118q-145 0 -268 -54t-206 -145t-129 -212.5t-46 -256.5zM739 1817h248l230 -267h-187z" />
<glyph unicode="&#xd3;" horiz-adv-x="1720" d="M123 588q0 178 62.5 336t174 274.5t275.5 184t358 67.5q316 0 496 -165.5t180 -438.5q0 -178 -62.5 -336t-174.5 -274t-276.5 -184t-358.5 -68q-316 0 -495 165.5t-179 438.5zM328 600q0 -198 127 -316t360 -118q145 0 268 54t205 145t128 212.5t46 256.5q0 198 -126 316 t-359 118q-145 0 -268 -54t-206 -145t-129 -212.5t-46 -256.5zM903 1550l309 267h256l-372 -267h-193z" />
<glyph unicode="&#xd4;" horiz-adv-x="1720" d="M123 588q0 178 62.5 336t174 274.5t275.5 184t358 67.5q316 0 496 -165.5t180 -438.5q0 -178 -62.5 -336t-174.5 -274t-276.5 -184t-358.5 -68q-316 0 -495 165.5t-179 438.5zM328 600q0 -198 127 -316t360 -118q145 0 268 54t205 145t128 212.5t46 256.5q0 198 -126 316 t-359 118q-145 0 -268 -54t-206 -145t-129 -212.5t-46 -256.5zM696 1550l305 267h187l239 -267h-172l-170 156l-206 -156h-183z" />
<glyph unicode="&#xd5;" horiz-adv-x="1720" d="M123 588q0 178 62.5 336t174 274.5t275.5 184t358 67.5q316 0 496 -165.5t180 -438.5q0 -178 -62.5 -336t-174.5 -274t-276.5 -184t-358.5 -68q-316 0 -495 165.5t-179 438.5zM328 600q0 -198 127 -316t360 -118q145 0 268 54t205 145t128 212.5t46 256.5q0 198 -126 316 t-359 118q-145 0 -268 -54t-206 -145t-129 -212.5t-46 -256.5zM725 1567q19 118 79 184t148 66q44 0 85 -22t67 -48t58.5 -48t62.5 -22q43 0 74 34t40 89h111q-19 -114 -78.5 -179t-146.5 -65q-37 0 -70.5 14t-58.5 34.5t-48 41t-48 34.5t-50 14q-44 0 -73.5 -34.5 t-38.5 -92.5h-113z" />
<glyph unicode="&#xd6;" horiz-adv-x="1720" d="M123 588q0 178 62.5 336t174 274.5t275.5 184t358 67.5q316 0 496 -165.5t180 -438.5q0 -178 -62.5 -336t-174.5 -274t-276.5 -184t-358.5 -68q-316 0 -495 165.5t-179 438.5zM328 600q0 -198 127 -316t360 -118q145 0 268 54t205 145t128 212.5t46 256.5q0 198 -126 316 t-359 118q-145 0 -268 -54t-206 -145t-129 -212.5t-46 -256.5zM795 1679q0 51 32.5 84t77.5 33q42 0 70.5 -27t28.5 -69q0 -50 -33 -82.5t-78 -32.5q-42 0 -70 26.5t-28 67.5zM1174 1679q0 51 32.5 84t79.5 33q41 0 69.5 -27t28.5 -69q0 -50 -32.5 -82.5t-79.5 -32.5 q-41 0 -69.5 26.5t-28.5 67.5z" />
<glyph unicode="&#xd7;" horiz-adv-x="1191" d="M223 453l295 268l-229 268l119 113l233 -271l297 271l102 -121l-297 -270l230 -267l-119 -112l-231 270l-299 -270z" />
<glyph unicode="&#xd8;" horiz-adv-x="1720" d="M25 -143l272 297q-174 163 -174 434q0 178 62.5 336t174 274.5t275.5 184t358 67.5q237 0 404 -96l205 223h165l-272 -297q174 -163 174 -434q0 -178 -62.5 -336t-174.5 -274t-276.5 -184t-358.5 -68q-235 0 -402 96l-205 -223h-165zM328 600q0 -182 106 -297l826 901 q-116 64 -283 64q-145 0 -268 -54t-206 -145t-129 -212.5t-46 -256.5zM532 229q114 -63 283 -63q145 0 268 54t205 145t128 212.5t46 256.5q0 184 -104 294z" />
<glyph unicode="&#xd9;" horiz-adv-x="1619" d="M203 463q0 67 16 155l162 816h205l-164 -813q-14 -69 -14 -136q0 -157 90.5 -238t261.5 -81q192 0 308 111t163 346l162 811h200l-163 -826q-125 -624 -689 -624q-254 0 -396 127t-142 352zM688 1817h248l229 -267h-186z" />
<glyph unicode="&#xda;" horiz-adv-x="1619" d="M203 463q0 67 16 155l162 816h205l-164 -813q-14 -69 -14 -136q0 -157 90.5 -238t261.5 -81q192 0 308 111t163 346l162 811h200l-163 -826q-125 -624 -689 -624q-254 0 -396 127t-142 352zM852 1550l309 267h256l-373 -267h-192z" />
<glyph unicode="&#xdb;" horiz-adv-x="1619" d="M203 463q0 67 16 155l162 816h205l-164 -813q-14 -69 -14 -136q0 -157 90.5 -238t261.5 -81q192 0 308 111t163 346l162 811h200l-163 -826q-125 -624 -689 -624q-254 0 -396 127t-142 352zM645 1550l305 267h187l239 -267h-172l-170 156l-207 -156h-182z" />
<glyph unicode="&#xdc;" horiz-adv-x="1619" d="M203 463q0 67 16 155l162 816h205l-164 -813q-14 -69 -14 -136q0 -157 90.5 -238t261.5 -81q192 0 308 111t163 346l162 811h200l-163 -826q-125 -624 -689 -624q-254 0 -396 127t-142 352zM743 1679q0 51 32.5 84t78.5 33q42 0 70 -27t28 -69q0 -50 -32.5 -82.5 t-77.5 -32.5q-42 0 -70.5 26.5t-28.5 67.5zM1122 1679q0 51 33 84t80 33q41 0 69.5 -27t28.5 -69q0 -50 -32.5 -82.5t-79.5 -32.5q-41 0 -70 27t-29 67z" />
<glyph unicode="&#xdd;" horiz-adv-x="1325" d="M172 1434h201l309 -760l612 760h217l-757 -945l-99 -489h-204l100 502zM707 1550l309 267h256l-373 -267h-192z" />
<glyph unicode="&#xde;" horiz-adv-x="1478" d="M106 0l287 1434h205l-35 -179h334q248 0 385 -109t137 -308q0 -274 -180 -428t-494 -154h-383l-51 -256h-205zM397 434h353q223 0 343.5 98t120.5 285q0 129 -88 195.5t-254 66.5h-346z" />
<glyph unicode="&#xdf;" horiz-adv-x="1382" d="M78 0l203 1018q52 260 207 387t386 127q192 0 305 -94.5t113 -255.5q0 -129 -64.5 -234t-176.5 -164q104 -36 163.5 -115.5t59.5 -195.5q0 -220 -155.5 -352.5t-401.5 -132.5q-155 0 -248 39l53 163q82 -30 195 -30q162 0 260 81t98 224q0 105 -74.5 158t-205.5 53h-113 l35 166q172 2 278.5 87.5t106.5 231.5q0 95 -62.5 147t-179.5 52q-149 0 -247.5 -80t-131.5 -248l-207 -1032h-196z" />
<glyph unicode="&#xe0;" d="M78 457q0 184 79.5 330t220 227.5t314.5 81.5q139 0 238.5 -50t152.5 -145l37 184h197l-215 -1085h-189l27 133q-151 -145 -383 -145q-211 0 -345 126.5t-134 342.5zM276 465q0 -143 85 -224t239 -81q185 0 304.5 128.5t119.5 329.5q0 145 -84.5 225.5t-239.5 80.5 q-184 0 -304 -129.5t-120 -329.5zM502 1509h248l229 -266h-186z" />
<glyph unicode="&#xe1;" d="M78 457q0 184 79.5 330t220 227.5t314.5 81.5q139 0 238.5 -50t152.5 -145l37 184h197l-215 -1085h-189l27 133q-151 -145 -383 -145q-211 0 -345 126.5t-134 342.5zM276 465q0 -143 85 -224t239 -81q185 0 304.5 128.5t119.5 329.5q0 145 -84.5 225.5t-239.5 80.5 q-184 0 -304 -129.5t-120 -329.5zM666 1243l309 266h256l-373 -266h-192z" />
<glyph unicode="&#xe2;" d="M78 457q0 184 79.5 330t220 227.5t314.5 81.5q139 0 238.5 -50t152.5 -145l37 184h197l-215 -1085h-189l27 133q-151 -145 -383 -145q-211 0 -345 126.5t-134 342.5zM276 465q0 -143 85 -224t239 -81q185 0 304.5 128.5t119.5 329.5q0 145 -84.5 225.5t-239.5 80.5 q-184 0 -304 -129.5t-120 -329.5zM459 1243l305 266h186l240 -266h-172l-170 156l-207 -156h-182z" />
<glyph unicode="&#xe3;" d="M78 457q0 184 79.5 330t220 227.5t314.5 81.5q139 0 238.5 -50t152.5 -145l37 184h197l-215 -1085h-189l27 133q-151 -145 -383 -145q-211 0 -345 126.5t-134 342.5zM276 465q0 -143 85 -224t239 -81q185 0 304.5 128.5t119.5 329.5q0 145 -84.5 225.5t-239.5 80.5 q-184 0 -304 -129.5t-120 -329.5zM487 1260q19 118 79.5 183.5t148.5 65.5q36 0 69 -14.5t58 -35t47.5 -40.5t47.5 -34.5t50 -14.5q44 0 75 34t40 89h110q-19 -114 -78.5 -179t-146.5 -65q-45 0 -86 21.5t-67 47t-58.5 47t-62.5 21.5q-44 0 -74 -34t-39 -92h-113z" />
<glyph unicode="&#xe4;" d="M78 457q0 184 79.5 330t220 227.5t314.5 81.5q139 0 238.5 -50t152.5 -145l37 184h197l-215 -1085h-189l27 133q-151 -145 -383 -145q-211 0 -345 126.5t-134 342.5zM276 465q0 -143 85 -224t239 -81q185 0 304.5 128.5t119.5 329.5q0 145 -84.5 225.5t-239.5 80.5 q-184 0 -304 -129.5t-120 -329.5zM557 1372q0 51 32.5 84t78.5 33q42 0 70 -27t28 -69q0 -50 -33 -82.5t-78 -32.5q-42 0 -70 26.5t-28 67.5zM936 1372q0 51 33 84t80 33q41 0 69.5 -27t28.5 -69q0 -50 -33 -82.5t-80 -32.5q-41 0 -69.5 26.5t-28.5 67.5z" />
<glyph unicode="&#xe5;" d="M78 457q0 184 79.5 330t220 227.5t314.5 81.5q139 0 238.5 -50t152.5 -145l37 184h197l-215 -1085h-189l27 133q-151 -145 -383 -145q-211 0 -345 126.5t-134 342.5zM276 465q0 -143 85 -224t239 -81q185 0 304.5 128.5t119.5 329.5q0 145 -84.5 225.5t-239.5 80.5 q-184 0 -304 -129.5t-120 -329.5zM637 1438q0 93 65 159t160 66q96 0 162 -66t66 -159t-66 -157t-162 -64t-160.5 64t-64.5 157zM729 1438q0 -58 37.5 -96.5t95.5 -38.5q59 0 97 38.5t38 96.5q0 59 -38.5 98t-96.5 39q-57 0 -95 -38.5t-38 -98.5z" />
<glyph unicode="&#xe6;" horiz-adv-x="2025" d="M55 287q0 156 121 247t350 91h338l6 32q9 37 9 72q0 96 -64 145.5t-190 49.5q-98 0 -193 -30.5t-164 -82.5l-59 156q86 62 206 95.5t240 33.5q295 0 377 -183q82 88 193 135.5t233 47.5q222 0 357 -126t135 -343q0 -63 -15 -144h-897v-14q0 -309 344 -309q208 0 336 125 l86 -142q-82 -74 -198 -114.5t-242 -40.5q-150 0 -266.5 56.5t-177.5 168.5q-141 -225 -459 -225q-192 0 -299 80.5t-107 218.5zM250 299q0 -77 57 -118.5t172 -41.5q129 0 221.5 69.5t120.5 203.5l15 71h-326q-123 0 -191.5 -49t-68.5 -135zM1059 625h702q7 146 -79 226.5 t-232 80.5q-144 0 -248.5 -82.5t-142.5 -224.5z" />
<glyph unicode="&#xe7;" horiz-adv-x="1169" d="M78 457q0 182 81.5 327.5t227.5 228.5t330 83q321 0 446 -236l-166 -92q-86 156 -295 156q-185 0 -305.5 -129.5t-120.5 -329.5q0 -144 85 -224.5t241 -80.5q99 0 183.5 39t140.5 114l143 -102q-71 -100 -192.5 -159t-262.5 -64l-39 -88q70 -10 108 -49t38 -99 q0 -97 -78 -154t-205 -57q-110 0 -178 45l51 101q60 -35 142 -35q63 0 96 24.5t33 65.5q0 72 -105 72h-53l80 180q-197 23 -311.5 148t-114.5 315z" />
<glyph unicode="&#xe8;" horiz-adv-x="1251" d="M78 459q0 182 78.5 327.5t218.5 227.5t315 82q222 0 354 -125.5t132 -343.5q0 -62 -15 -146h-891v-12q0 -151 85.5 -230t258.5 -79q100 0 188.5 33.5t147.5 91.5l84 -142q-78 -74 -194 -114.5t-242 -40.5q-241 0 -380.5 127.5t-139.5 343.5zM291 625h700q7 146 -77 226.5 t-232 80.5q-147 0 -250.5 -82.5t-140.5 -224.5zM432 1507h248l229 -266h-186z" />
<glyph unicode="&#xe9;" horiz-adv-x="1251" d="M78 459q0 182 78.5 327.5t218.5 227.5t315 82q222 0 354 -125.5t132 -343.5q0 -62 -15 -146h-891v-12q0 -151 85.5 -230t258.5 -79q100 0 188.5 33.5t147.5 91.5l84 -142q-78 -74 -194 -114.5t-242 -40.5q-241 0 -380.5 127.5t-139.5 343.5zM291 625h700q7 146 -77 226.5 t-232 80.5q-147 0 -250.5 -82.5t-140.5 -224.5zM596 1241l309 266h256l-373 -266h-192z" />
<glyph unicode="&#xea;" horiz-adv-x="1251" d="M78 459q0 182 78.5 327.5t218.5 227.5t315 82q222 0 354 -125.5t132 -343.5q0 -62 -15 -146h-891v-12q0 -151 85.5 -230t258.5 -79q100 0 188.5 33.5t147.5 91.5l84 -142q-78 -74 -194 -114.5t-242 -40.5q-241 0 -380.5 127.5t-139.5 343.5zM291 625h700q7 146 -77 226.5 t-232 80.5q-147 0 -250.5 -82.5t-140.5 -224.5zM389 1241l305 266h187l239 -266h-172l-170 156l-207 -156h-182z" />
<glyph unicode="&#xeb;" horiz-adv-x="1251" d="M78 459q0 182 78.5 327.5t218.5 227.5t315 82q222 0 354 -125.5t132 -343.5q0 -62 -15 -146h-891v-12q0 -151 85.5 -230t258.5 -79q100 0 188.5 33.5t147.5 91.5l84 -142q-78 -74 -194 -114.5t-242 -40.5q-241 0 -380.5 127.5t-139.5 343.5zM291 625h700q7 146 -77 226.5 t-232 80.5q-147 0 -250.5 -82.5t-140.5 -224.5zM487 1370q0 51 32.5 84t78.5 33q42 0 70 -27t28 -69q0 -50 -32.5 -82.5t-77.5 -32.5q-42 0 -70.5 26.5t-28.5 67.5zM866 1370q0 51 33 84t80 33q41 0 69.5 -27t28.5 -69q0 -50 -32.5 -82.5t-79.5 -32.5q-41 0 -70 27t-29 67z " />
<glyph unicode="&#xec;" horiz-adv-x="571" d="M80 0l215 1085h197l-216 -1085h-196zM102 1509h248l230 -266h-187z" />
<glyph unicode="&#xed;" horiz-adv-x="571" d="M80 0l215 1085h197l-216 -1085h-196zM266 1243l309 266h256l-372 -266h-193z" />
<glyph unicode="&#xee;" horiz-adv-x="571" d="M80 0l215 1085h197l-216 -1085h-196zM111 1243l258 266h180l190 -266h-164l-129 152l-163 -152h-172z" />
<glyph unicode="&#xef;" horiz-adv-x="571" d="M80 0l215 1085h197l-216 -1085h-196zM203 1372q0 51 31 84t77 33q41 0 68 -28t27 -70q0 -49 -31 -81t-76 -32q-41 0 -68.5 27t-27.5 67zM498 1372q0 51 31 84t77 33q39 0 66.5 -27.5t27.5 -68.5q0 -49 -31 -82t-77 -33q-40 0 -67 27t-27 67z" />
<glyph unicode="&#xf0;" horiz-adv-x="1310" d="M68 391q0 226 162 367t417 141q142 0 249.5 -58t152.5 -161q26 116 26 231q0 179 -92 285l-553 -213l-49 133l455 176q-83 27 -189 27q-155 0 -280 -41v166q134 41 299 41q235 0 389 -109l223 86l49 -133l-160 -61q107 -145 107 -357q0 -145 -30.5 -281.5t-92.5 -253.5 t-148 -204.5t-204 -137.5t-254 -50q-212 0 -344.5 112.5t-132.5 294.5zM262 406q0 -119 79 -187.5t218 -68.5q103 0 193 42t145 118.5t55 168.5q0 119 -79.5 187.5t-217.5 68.5q-177 0 -285 -90.5t-108 -238.5z" />
<glyph unicode="&#xf1;" horiz-adv-x="1394" d="M80 0l215 1085h188l-26 -139q147 150 393 150q186 0 289.5 -94.5t103.5 -266.5q0 -59 -12 -127l-121 -608h-197l121 608q10 55 10 90q0 108 -62.5 165t-188.5 57q-160 0 -263.5 -87.5t-138.5 -259.5l-115 -573h-196zM504 1260q19 118 79 183.5t148 65.5q44 0 85 -21.5 t67 -48t58.5 -48t62.5 -21.5q43 0 74 34t40 89h111q-19 -114 -78.5 -179t-146.5 -65q-45 0 -86.5 21.5t-67.5 47t-58.5 47t-62.5 21.5q-44 0 -74 -34t-39 -92h-112z" />
<glyph unicode="&#xf2;" horiz-adv-x="1300" d="M78 457q0 181 81.5 327t227 229t328.5 83q232 0 370 -126.5t138 -340.5q0 -183 -81 -329t-226 -229t-328 -83q-232 0 -371 128.5t-139 340.5zM276 465q0 -143 85 -224t239 -81q185 0 304.5 128.5t119.5 329.5q0 145 -84.5 225.5t-239.5 80.5q-184 0 -304 -129.5 t-120 -329.5zM463 1509h248l229 -266h-186z" />
<glyph unicode="&#xf3;" horiz-adv-x="1300" d="M78 457q0 181 81.5 327t227 229t328.5 83q232 0 370 -126.5t138 -340.5q0 -183 -81 -329t-226 -229t-328 -83q-232 0 -371 128.5t-139 340.5zM276 465q0 -143 85 -224t239 -81q185 0 304.5 128.5t119.5 329.5q0 145 -84.5 225.5t-239.5 80.5q-184 0 -304 -129.5 t-120 -329.5zM627 1243l309 266h256l-373 -266h-192z" />
<glyph unicode="&#xf4;" horiz-adv-x="1300" d="M78 457q0 181 81.5 327t227 229t328.5 83q232 0 370 -126.5t138 -340.5q0 -183 -81 -329t-226 -229t-328 -83q-232 0 -371 128.5t-139 340.5zM276 465q0 -143 85 -224t239 -81q185 0 304.5 128.5t119.5 329.5q0 145 -84.5 225.5t-239.5 80.5q-184 0 -304 -129.5 t-120 -329.5zM420 1243l305 266h186l240 -266h-172l-170 156l-207 -156h-182z" />
<glyph unicode="&#xf5;" horiz-adv-x="1300" d="M78 457q0 181 81.5 327t227 229t328.5 83q232 0 370 -126.5t138 -340.5q0 -183 -81 -329t-226 -229t-328 -83q-232 0 -371 128.5t-139 340.5zM276 465q0 -143 85 -224t239 -81q185 0 304.5 128.5t119.5 329.5q0 145 -84.5 225.5t-239.5 80.5q-184 0 -304 -129.5 t-120 -329.5zM449 1260q19 118 79 183.5t148 65.5q36 0 69 -14.5t58 -35t47.5 -40.5t47.5 -34.5t50 -14.5q44 0 75 34t40 89h111q-19 -114 -78.5 -179t-147.5 -65q-45 0 -86 21.5t-67 47t-58.5 47t-62.5 21.5q-44 0 -74 -34t-39 -92h-112z" />
<glyph unicode="&#xf6;" horiz-adv-x="1300" d="M78 457q0 181 81.5 327t227 229t328.5 83q232 0 370 -126.5t138 -340.5q0 -183 -81 -329t-226 -229t-328 -83q-232 0 -371 128.5t-139 340.5zM276 465q0 -143 85 -224t239 -81q185 0 304.5 128.5t119.5 329.5q0 145 -84.5 225.5t-239.5 80.5q-184 0 -304 -129.5 t-120 -329.5zM518 1372q0 51 32.5 84t78.5 33q42 0 70 -27t28 -69q0 -50 -33 -82.5t-78 -32.5q-42 0 -70 26.5t-28 67.5zM897 1372q0 51 33 84t80 33q41 0 69.5 -27t28.5 -69q0 -50 -33 -82.5t-80 -32.5q-41 0 -69.5 26.5t-28.5 67.5z" />
<glyph unicode="&#xf7;" horiz-adv-x="1191" d="M158 635l30 162h918l-33 -162h-915zM432 305q0 57 36.5 94t88.5 37q47 0 80 -31t33 -81q0 -57 -37 -95.5t-90 -38.5q-47 0 -79 33t-32 82zM592 1112q0 56 36.5 93.5t88.5 37.5q48 0 80 -31.5t32 -81.5q0 -57 -36.5 -95t-90.5 -38q-46 0 -78 33t-32 82z" />
<glyph unicode="&#xf8;" horiz-adv-x="1300" d="M-2 -143l221 258q-141 128 -141 342q0 181 81.5 327t227 229t328.5 83q164 0 284 -66l168 197h129l-217 -254q144 -128 144 -344q0 -183 -81 -329t-226 -229t-328 -83q-169 0 -289 69l-172 -200h-129zM276 465q0 -127 66 -205l535 627q-70 37 -177 37q-184 0 -304 -129.5 t-120 -329.5zM420 199q76 -39 180 -39q185 0 304.5 128.5t119.5 329.5q0 130 -70 209z" />
<glyph unicode="&#xf9;" horiz-adv-x="1386" d="M152 352q0 57 12 125l121 608h196l-121 -610q-10 -55 -10 -92q0 -106 62.5 -162.5t185.5 -56.5q156 0 259 87.5t138 258.5l115 575h197l-215 -1085h-189l27 139q-148 -151 -389 -151q-180 0 -284.5 96t-104.5 268zM506 1509h248l229 -266h-186z" />
<glyph unicode="&#xfa;" horiz-adv-x="1386" d="M152 352q0 57 12 125l121 608h196l-121 -610q-10 -55 -10 -92q0 -106 62.5 -162.5t185.5 -56.5q156 0 259 87.5t138 258.5l115 575h197l-215 -1085h-189l27 139q-148 -151 -389 -151q-180 0 -284.5 96t-104.5 268zM670 1243l309 266h256l-373 -266h-192z" />
<glyph unicode="&#xfb;" horiz-adv-x="1386" d="M152 352q0 57 12 125l121 608h196l-121 -610q-10 -55 -10 -92q0 -106 62.5 -162.5t185.5 -56.5q156 0 259 87.5t138 258.5l115 575h197l-215 -1085h-189l27 139q-148 -151 -389 -151q-180 0 -284.5 96t-104.5 268zM463 1243l305 266h186l240 -266h-172l-170 156 l-207 -156h-182z" />
<glyph unicode="&#xfc;" horiz-adv-x="1386" d="M152 352q0 57 12 125l121 608h196l-121 -610q-10 -55 -10 -92q0 -106 62.5 -162.5t185.5 -56.5q156 0 259 87.5t138 258.5l115 575h197l-215 -1085h-189l27 139q-148 -151 -389 -151q-180 0 -284.5 96t-104.5 268zM561 1372q0 51 32.5 84t78.5 33q42 0 70 -27t28 -69 q0 -50 -33 -82.5t-78 -32.5q-42 0 -70 26.5t-28 67.5zM940 1372q0 51 33 84t80 33q41 0 69.5 -27t28.5 -69q0 -50 -33 -82.5t-80 -32.5q-41 0 -69.5 26.5t-28.5 67.5z" />
<glyph unicode="&#xfd;" horiz-adv-x="1144" d="M-209 -313l103 145q74 -74 184 -74q69 0 122 36.5t111 125.5l56 86l-263 1079h197l209 -868l547 868h198l-770 -1204q-104 -163 -198.5 -227t-223.5 -64q-80 0 -155 26t-117 71zM526 1243l310 266h256l-373 -266h-193z" />
<glyph unicode="&#xfe;" d="M0 -397l383 1917h197l-115 -559q151 135 375 135q211 0 345 -125.5t134 -341.5q0 -184 -79.5 -330.5t-220 -228.5t-314.5 -82q-139 0 -240 50.5t-154 145.5l-114 -581h-197zM373 465q0 -144 84.5 -224.5t238.5 -80.5q184 0 304 129t120 329q0 145 -84 225.5t-239 80.5 q-185 0 -304.5 -129t-119.5 -330z" />
<glyph unicode="&#xff;" horiz-adv-x="1144" d="M-209 -313l103 145q74 -74 184 -74q69 0 122 36.5t111 125.5l56 86l-263 1079h197l209 -868l547 868h198l-770 -1204q-104 -163 -198.5 -227t-223.5 -64q-80 0 -155 26t-117 71zM418 1372q0 51 32.5 84t77.5 33q42 0 70.5 -27t28.5 -69q0 -50 -33 -82.5t-78 -32.5 q-42 0 -70 26.5t-28 67.5zM797 1372q0 51 32.5 84t79.5 33q41 0 70 -27t29 -69q0 -50 -33 -82.5t-80 -32.5q-41 0 -69.5 26.5t-28.5 67.5z" />
<glyph unicode="&#x152;" horiz-adv-x="2306" d="M123 588q0 188 64 345.5t179.5 267.5t282 171.5t365.5 61.5h1325l-35 -179h-809l-88 -440h721l-35 -174h-721l-92 -463h838l-37 -178h-1272q-322 0 -504 159t-182 429zM328 600q0 -198 127.5 -310t373.5 -112h246l217 1077h-284q-206 0 -361.5 -85t-237 -233t-81.5 -337z " />
<glyph unicode="&#x153;" horiz-adv-x="2183" d="M78 457q0 181 79 327t220.5 229t318.5 83q158 0 274 -64t173 -180q83 116 206.5 180t272.5 64q222 0 354.5 -125.5t132.5 -343.5q0 -74 -16 -146h-889v-12q0 -151 85.5 -230t258.5 -79q99 0 187 33.5t149 91.5l84 -142q-81 -74 -196.5 -114.5t-241.5 -40.5 q-164 0 -282.5 65t-176.5 183q-83 -117 -212 -182.5t-286 -65.5q-222 0 -358.5 128.5t-136.5 340.5zM276 465q0 -143 85 -224t239 -81q185 0 304.5 128.5t119.5 329.5q0 145 -84.5 225.5t-239.5 80.5q-184 0 -304 -129.5t-120 -329.5zM1225 625h700q7 146 -78 226.5 t-233 80.5q-146 0 -249 -82.5t-140 -224.5z" />
<glyph unicode="&#x178;" horiz-adv-x="1325" d="M172 1434h201l309 -760l612 760h217l-757 -945l-99 -489h-204l100 502zM598 1679q0 51 32.5 84t78.5 33q42 0 70 -27t28 -69q0 -50 -33 -82.5t-78 -32.5q-42 0 -70 26.5t-28 67.5zM977 1679q0 51 33 84t80 33q41 0 69.5 -27t28.5 -69q0 -50 -33 -82.5t-80 -32.5 q-41 0 -69.5 26.5t-28.5 67.5z" />
<glyph unicode="&#x2c6;" horiz-adv-x="1228" d="M389 1243l305 266h187l239 -266h-172l-170 156l-207 -156h-182z" />
<glyph unicode="&#x2dc;" horiz-adv-x="1228" d="M418 1260q19 118 79 183.5t148 65.5q44 0 85 -21.5t67 -48t58.5 -48t62.5 -21.5q43 0 74 34t40 89h111q-19 -114 -78.5 -179t-146.5 -65q-45 0 -86.5 21.5t-67.5 47t-58.5 47t-62.5 21.5q-44 0 -74 -34t-39 -92h-112z" />
<glyph unicode="&#x2000;" horiz-adv-x="1005" />
<glyph unicode="&#x2001;" horiz-adv-x="2011" />
<glyph unicode="&#x2002;" horiz-adv-x="1005" />
<glyph unicode="&#x2003;" horiz-adv-x="2011" />
<glyph unicode="&#x2004;" horiz-adv-x="670" />
<glyph unicode="&#x2005;" horiz-adv-x="502" />
<glyph unicode="&#x2006;" horiz-adv-x="335" />
<glyph unicode="&#x2007;" horiz-adv-x="335" />
<glyph unicode="&#x2008;" horiz-adv-x="251" />
<glyph unicode="&#x2009;" horiz-adv-x="402" />
<glyph unicode="&#x200a;" horiz-adv-x="111" />
<glyph unicode="&#x2010;" horiz-adv-x="784" d="M106 477l33 170h551l-35 -170h-549z" />
<glyph unicode="&#x2011;" horiz-adv-x="784" d="M106 477l33 170h551l-35 -170h-549z" />
<glyph unicode="&#x2012;" horiz-adv-x="784" d="M106 477l33 170h551l-35 -170h-549z" />
<glyph unicode="&#x2013;" horiz-adv-x="1024" d="M-8 494l26 137h1024l-26 -137h-1024z" />
<glyph unicode="&#x2014;" horiz-adv-x="2048" d="M-8 494l26 137h2048l-26 -137h-2048z" />
<glyph unicode="&#x2018;" horiz-adv-x="464" d="M203 1079q0 31 10.5 59t36.5 74l172 308h129l-137 -310q63 -37 63 -112q0 -65 -42.5 -107.5t-100.5 -42.5q-56 0 -93.5 37t-37.5 94z" />
<glyph unicode="&#x2019;" horiz-adv-x="464" d="M193 961l137 307q-66 39 -66 116q0 64 43 106t103 42q56 0 92.5 -37t36.5 -94q0 -53 -45 -133l-172 -307h-129z" />
<glyph unicode="&#x201a;" horiz-adv-x="464" d="M-61 -303l139 307q-30 18 -48 48.5t-18 66.5q0 65 42.5 107t103.5 42q56 0 92.5 -37.5t36.5 -95.5q0 -53 -47 -131l-172 -307h-129z" />
<glyph unicode="&#x201c;" horiz-adv-x="851" d="M203 1079q0 31 10.5 59t36.5 74l172 308h129l-137 -310q63 -37 63 -112q0 -65 -42.5 -107.5t-100.5 -42.5q-56 0 -93.5 37t-37.5 94zM590 1079q0 31 10.5 59t36.5 74l172 308h129l-137 -310q63 -37 63 -112q0 -65 -42.5 -107.5t-100.5 -42.5q-56 0 -93.5 37t-37.5 94z " />
<glyph unicode="&#x201d;" horiz-adv-x="851" d="M193 961l137 307q-66 39 -66 116q0 64 43 106t103 42q56 0 92.5 -37t36.5 -94q0 -53 -45 -133l-172 -307h-129zM580 961l137 307q-66 39 -66 116q0 64 43 106t103 42q56 0 92.5 -37t36.5 -94q0 -53 -45 -133l-172 -307h-129z" />
<glyph unicode="&#x201e;" horiz-adv-x="851" d="M-61 -303l139 307q-30 18 -48 48.5t-18 66.5q0 65 42.5 107t103.5 42q56 0 92.5 -37.5t36.5 -95.5q0 -53 -47 -131l-172 -307h-129zM326 -303l139 307q-30 18 -48 48.5t-18 66.5q0 65 42.5 107t103.5 42q56 0 92.5 -37.5t36.5 -95.5q0 -53 -47 -131l-172 -307h-129z" />
<glyph unicode="&#x2022;" horiz-adv-x="643" d="M139 549q0 87 57 144t140 57q73 0 123.5 -50.5t50.5 -124.5q0 -85 -57 -142.5t-140 -57.5q-72 0 -123 50.5t-51 123.5z" />
<glyph unicode="&#x2026;" horiz-adv-x="1415" d="M12 119q0 65 42.5 107t103.5 42q56 0 92.5 -37.5t36.5 -95.5q0 -64 -42.5 -105.5t-101.5 -41.5q-55 0 -93 38t-38 93zM487 119q0 65 42.5 107t103.5 42q56 0 92.5 -37.5t36.5 -95.5q0 -64 -42.5 -105.5t-101.5 -41.5q-56 0 -93.5 38t-37.5 93zM963 119q0 65 42 107 t103 42q56 0 92.5 -37.5t36.5 -95.5q0 -64 -42 -105.5t-101 -41.5q-56 0 -93.5 38t-37.5 93z" />
<glyph unicode="&#x202f;" horiz-adv-x="402" />
<glyph unicode="&#x2039;" horiz-adv-x="638" d="M94 543l373 393h184l-364 -401l198 -383h-176z" />
<glyph unicode="&#x203a;" horiz-adv-x="641" d="M-12 152l366 397l-200 387h178l215 -393l-373 -391h-186z" />
<glyph unicode="&#x205f;" horiz-adv-x="502" />
<glyph unicode="&#x20ac;" horiz-adv-x="1654" d="M57 518l23 115h219q3 79 23 168h-207l22 114h219q92 242 307.5 388.5t512.5 146.5q179 0 316 -58t210 -165l-148 -127q-129 168 -393 168q-204 0 -356 -96t-232 -257h664l-25 -114h-684q-19 -73 -26 -168h678l-25 -115h-647q25 -165 150 -258.5t337 -93.5q265 0 435 170 l118 -135q-98 -107 -245 -162t-322 -55q-297 0 -476.5 145t-203.5 389h-244z" />
<glyph unicode="&#x2122;" horiz-adv-x="2107" d="M164 1315l22 119h768l-24 -119h-309l-148 -731h-145l145 731h-309zM907 584l170 850h119l262 -582l486 582h124l-167 -850h-144l117 587l-410 -487h-67l-228 500l-120 -600h-142z" />
<glyph unicode="&#x25fc;" horiz-adv-x="1085" d="M0 0v1085h1085v-1085h-1085z" />
</font>
</defs>
</svg>
