<?xml version="1.0" encoding="utf-8"?>
<!-- Generator: Adobe Illustrator 22.0.1, SVG Export Plug-In . SVG Version: 6.00 Build 0)  -->
<svg version="1.1" id="Calque_1" xmlns="http://www.w3.org/2000/svg" xmlns:xlink="http://www.w3.org/1999/xlink" x="0px" y="0px"
	 viewBox="0 0 110.9 154.4" style="enable-background:new 0 0 110.9 154.4;" xml:space="preserve">
<style type="text/css">
	.st0{fill:#FFFFFF;}
	.st1{fill:#494949;}
</style>
<g>
	<path class="st0" d="M37.2,26.4c7.1,0,13.1-6,13.1-13.1C50.4,6.1,44.4,0,37.2,0c-7.3,0-13.3,5.9-13.4,13.2
		C23.8,20.5,29.8,26.4,37.2,26.4z"/>
	<path class="st0" d="M90.7,60.5c0-3.5-2.8-6.3-6.3-6.3c-0.7,0-1.3,0.1-1.9,0.3l0,0c-6.5,2.1-9.9,3.1-14,4.4c-1.6-7.3-1.7-8.1-4-18
		c-1.4-6.5-6.1-10.2-12.8-10.2H37.3l0,0H22.8c-6.6,0-11.3,3.7-12.8,10.2C7.4,52.6,2.7,73.8,0.2,85.4c-0.8,3.6,1.5,6.9,5.2,7.7
		c3.3,0.7,6.8-1.4,7.5-4.9c1.7-8.1,7.5-35.9,8-37l2.9,24.3l-9,70.6l0,0c-0.1,0.4-0.1,0.8-0.1,1.1c0,4,3.2,7.2,7.2,7.2
		c3.4,0,6.3-2.4,7-5.7l0,0c1.5-7.8,8.3-58.9,8.3-59l8.2,59l0,0c0.7,3.2,3.6,5.7,7,5.7c4,0,7.2-3.2,7.2-7.2c0-0.4,0-0.8-0.1-1.1l0,0
		l-8.9-70.6l2.9-24.3c0.4,0.9,2.9,12.2,3.8,16.1s3.5,6,7.1,6c0.6,0,1.2-0.1,1.8-0.2l20-6.5l0,0C88.9,65.7,90.7,63.3,90.7,60.5z"/>
</g>
<g>
	<rect x="82.2" y="18.5" class="st1" width="28.7" height="28.7"/>
	<rect x="93.4" y="18.5" class="st0" width="6.3" height="14.3"/>
</g>
</svg>
