<?xml version="1.0" encoding="utf-8"?>
<!-- Generator: Adobe Illustrator 22.0.1, SVG Export Plug-In . SVG Version: 6.00 Build 0)  -->
<svg version="1.1" id="Calque_1" xmlns="http://www.w3.org/2000/svg" xmlns:xlink="http://www.w3.org/1999/xlink" x="0px" y="0px"
	 viewBox="0 0 153.4 153.4" style="enable-background:new 0 0 153.4 153.4;" xml:space="preserve">
<style type="text/css">
	.st0{fill:#494949;}
	.st1{fill:#FFFFFF;}
	.st2{fill:#EF3340;}
	.st3{clip-path:url(#SVGID_2_);}
</style>
<g id="FOND">
</g>
<circle class="st0" cx="70.1" cy="83.4" r="30.6"/>
<circle class="st1" cx="70.1" cy="83.4" r="20.6"/>
<circle class="st1" cx="16.7" cy="33.4" r="16.6"/>
<circle class="st1" cx="95.1" cy="18.3" r="16.6"/>
<circle class="st1" cx="130.1" cy="49.9" r="16.6"/>
<circle class="st1" cx="133.4" cy="106.7" r="16.6"/>
<circle class="st1" cx="21.7" cy="131.8" r="16.6"/>
<g transform="translate(0,-952.36218)">
	<g>
		<path class="st0" d="M95.1,952.4c-10.1,0-18.3,8.3-18.3,18.3c0,5.9,2.9,11.2,7.2,14.5l-7.4,24.7c-2.1-0.5-4.3-0.8-6.5-0.8
			c-5.7,0-10.9,1.8-15.3,4.8L31.1,994c1.4-2.4,2.2-5.3,2.2-8.3c0-9.2-7.5-16.7-16.7-16.7C7.5,969,0,976.6,0,985.7
			s7.5,16.7,16.7,16.7c2.5,0,4.9-0.6,7-1.6l24.1,20.3c-2.8,4.2-4.4,9.2-4.4,14.6c0,5.5,1.7,10.7,4.6,15l-15,15
			c-3.3-2.1-7.2-3.2-11.4-3.2c-11.9,0-21.7,9.8-21.7,21.7c0,11.9,9.8,21.7,21.7,21.7s21.7-9.8,21.7-21.7c0-4.2-1.2-8-3.3-11.4l15-15
			c4.3,2.9,9.5,4.6,15,4.6c9.4,0,17.7-4.9,22.4-12.3l21.1,7c-0.1,0.6-0.1,1.3-0.1,1.9c0,11,9,20,20,20s20-9,20-20s-9-20-20-20
			c-6.8,0-12.8,3.5-16.5,8.7l-20.7-6.9c0.3-1.7,0.5-3.4,0.5-5.2c0-2.2-0.3-4.3-0.8-6.3l22.6-15.1c3,2.9,7.1,4.7,11.6,4.7
			c9.2,0,16.7-7.5,16.7-16.7s-7.5-16.7-16.7-16.7s-16.7,7.5-16.7,16.7c0,1.1,0.2,2.2,0.4,3.2l-22,14.6c-1.7-2.3-3.7-4.4-6-6
			l7.6-25.3c0.6,0.1,1.2,0.1,1.8,0.1c10.1,0,18.3-8.3,18.3-18.3C113.4,960.6,105.1,952.4,95.1,952.4z"/>
	</g>
</g>
<path class="st2" d="M70.1,61.8c12,0,21.6,9.6,21.6,21.6S82,105,70.1,105c-12,0-21.6-9.6-21.6-21.6S58.1,61.8,70.1,61.8z"/>
<g>
	<defs>
		<circle id="SVGID_1_" cx="70.1" cy="83.4" r="21.6"/>
	</defs>
	<clipPath id="SVGID_2_">
		<use xlink:href="#SVGID_1_"  style="overflow:visible;"/>
	</clipPath>
	<g class="st3">
		<g>
			<path class="st1" d="M70,82.4c3.7,0,6.9-3.1,6.9-6.9s-3.1-7-6.9-7c-3.9,0-7,3.1-7,6.9C63,79.3,66.1,82.4,70,82.4z"/>
		</g>
		<g>
			<path class="st1" d="M85.1,114.1c-1.4-6.2-1-17.3-2.4-23.5c-0.8-3.4-3.2-5.4-6.7-5.4h-5.9h-5.9c-3.5,0-6,2-6.7,5.4
				c-1.4,6.1-1.6,17.3-2.9,23.5c-0.4,1.9-3.2,3.6-1.2,4c1.8,0.4,3.6-0.8,4-2.6c0.9-4.3,5.8-6.7,5.8-6.7L58.3,146l0,0
				c0,0.2,0,0.4,0,0.6c0,2.1,1.7,3.8,3.8,3.8c1.8,0,3.3-1.3,3.7-3l0,0c0.8-4.1,4.3-31,4.3-31s3.6,26.9,4.3,31l0,0
				c0.4,1.7,1.9,3,3.7,3c2.1,0,3.8-1.7,3.8-3.8c0-0.2,0-0.4,0-0.6l0,0l-4.7-37.1c0,0,4.9,2.4,5.8,6.7c0.4,1.8,2.2,3,4,2.6
				C88.8,117.7,85.5,116,85.1,114.1z"/>
		</g>
	</g>
</g>
<path class="st1" d="M95.1,10c4.7,0,8.3,3.7,8.3,8.3s-3.7,8.3-8.3,8.3c-4.7,0-8.3-3.7-8.3-8.3S90.4,10,95.1,10z"/>
<path class="st1" d="M16.7,26.7c3.7,0,6.7,2.9,6.7,6.7s-3,6.6-6.7,6.6S10,37.1,10,33.3S12.9,26.7,16.7,26.7z"/>
<path class="st1" d="M130.1,43.4c3.7,0,6.7,2.9,6.7,6.7c0,3.7-2.9,6.7-6.7,6.7c-3.7,0-6.7-2.9-6.7-6.7
	C123.4,46.3,126.3,43.4,130.1,43.4z"/>
<path class="st1" d="M133.4,96.7c5.6,0,10,4.4,10,10s-4.4,10-10,10s-10-4.4-10-10C123.4,101.2,127.8,96.7,133.4,96.7L133.4,96.7z"/>
<path class="st1" d="M21.7,120.1c6.5,0,11.7,5.2,11.7,11.7c0,6.5-5.2,11.7-11.7,11.7S10,138.3,10,131.8S15.2,120.1,21.7,120.1z"/>
</svg>
