<?xml version="1.0" encoding="utf-8"?>
<!-- Generator: Adobe Illustrator 22.0.1, SVG Export Plug-In . SVG Version: 6.00 Build 0)  -->
<svg version="1.1" id="Calque_1" xmlns="http://www.w3.org/2000/svg" xmlns:xlink="http://www.w3.org/1999/xlink" x="0px" y="0px"
	 viewBox="0 0 142.9 151.9" style="enable-background:new 0 0 142.9 151.9;" xml:space="preserve">
<style type="text/css">
	.st0{display:none;}
	.st1{fill:#494949;}
	.st2{fill:#FFFFFF;}
</style>
<g id="INSPIRATION" class="st0">
	
		<image style="display:inline;overflow:visible;enable-background:new    ;" width="1898" height="7570" xlink:href="580B7757D507867A.jpeg"  transform="matrix(1 0 0 1 -1021.6974 -5240.5713)">
	</image>
</g>
<g id="FOND">
</g>
<rect x="82.2" y="81.7" class="st1" width="4.8" height="19.1"/>
<path class="st2" d="M37.2,71.5c4.3,0,7.9-3.6,8-7.9c0-4.4-3.6-8-7.9-8.1c-4.4,0-8.1,3.6-8.1,8C29.1,67.9,32.8,71.5,37.2,71.5z"/>
<path class="st2" d="M59.7,107.8c-1.6-7.1-4.4-19.9-6-27c-0.9-3.9-3.7-6.2-7.7-6.2h-8.8h-8.8c-4,0-6.8,2.2-7.7,6.2
	c-1.6,7.1-4.4,19.9-6,27c-0.5,2.2,0.9,4.2,3.2,4.6c2,0.4,4.1-0.9,4.6-3c1-4.9,4.5-21.8,4.8-22.4l1.8,14.7l-5.4,42.7l0,0
	c0,0.2-0.1,0.5-0.1,0.7c0,2.4,1.9,4.3,4.3,4.3c2.1,0,3.8-1.5,4.2-3.4l0,0c0.9-4.7,5-35.7,5-35.7s4.1,31,5,35.7l0,0
	c0.4,2,2.2,3.4,4.2,3.4c2.4,0,4.3-1.9,4.3-4.3c0-0.2,0-0.5-0.1-0.7l0,0l-5.4-42.7L46.9,87c0.3,0.6,3.8,17.5,4.8,22.4
	c0.4,2.1,2.5,3.4,4.6,3C58.8,112,60.2,110,59.7,107.8z"/>
<path class="st1" d="M142.9,26.5V8.6c0-4.7-3.9-8.6-8.6-8.6H8.6C3.9,0,0,3.9,0,8.6v17.9l0,0v116.6c0,4.8,3.9,8.7,8.7,8.7h125.4
	c4.8,0,8.7-3.9,8.7-8.7L142.9,26.5L142.9,26.5z M65.9,143.3H9.2V38.8h56.7V143.3z M133.7,143.3H77V38.8h56.7V143.3z"/>
<path class="st2" d="M41.8,29.6v-3.2c1.3,0.8,2.4,1.3,3.5,1.3c1.3,0,2.3-0.7,2.3-2.2v-0.1c0-1.2-0.4-2.1-2.4-4.5
	c-2.6-3.1-3.6-4.5-3.6-6.9v-0.1c0-3.1,2.1-5.2,4.9-5.2c1.4,0,2.4,0.3,3.3,0.8v3.2c-1.2-0.7-2-1-3-1c-1.2,0-2.2,0.8-2.2,2.2V14
	c0,1.2,0.4,1.8,2.3,4.2c2.8,3.4,3.6,4.8,3.6,7.2v0.1c0,3.1-2.2,5.2-5,5.2C44.1,30.6,42.9,30.2,41.8,29.6z"/>
<path class="st2" d="M56.8,9h3v9.2H64V9h3v21.4h-3v-9.3h-4.2v9.3h-3V9z"/>
<path class="st2" d="M73.8,20.2v-0.9c0-7.2,2.3-10.5,5.5-10.5s5.5,3.3,5.5,10.5v0.9c0,7.2-2.3,10.5-5.5,10.5S73.8,27.4,73.8,20.2z
	 M81.7,20.2v-0.9c0-5.5-1-7.8-2.4-7.8s-2.4,2.2-2.4,7.8v0.9c0,5.5,1,7.8,2.4,7.8S81.7,25.7,81.7,20.2z"/>
<path class="st2" d="M91.5,9h3.1c4,0,6.7,2.3,6.7,7v0.1c0,4.6-2.6,7-6.4,7.2h-0.4v7h-3C91.5,30.3,91.5,9,91.5,9z M94.9,20.6
	c2-0.1,3.4-1.5,3.4-4.3v-0.1c0-3-1.3-4.4-3.3-4.4h-0.5v8.8C94.5,20.6,94.9,20.6,94.9,20.6z"/>
<g id="REGLES">
</g>
</svg>
