<?xml version="1.0" encoding="utf-8"?>
<!-- Generator: Adobe Illustrator 19.2.1, SVG Export Plug-In . SVG Version: 6.00 Build 0)  -->
<svg version="1.1" id="FOND" xmlns="http://www.w3.org/2000/svg" xmlns:xlink="http://www.w3.org/1999/xlink" x="0px" y="0px"
	 width="4px" height="7px" viewBox="0 0 4 7" style="enable-background:new 0 0 4 7;" xml:space="preserve">
<style type="text/css">
	.st0{fill:#FF3D46;}
</style>
<path class="st0" d="M0.5,24v-0.2c0-0.8,0.7-1.5,1.5-1.5s1.5,0.7,1.5,1.5V24c0,0.8-0.7,1.5-1.5,1.5S0.5,24.9,0.5,24z M0.5,13.8v-0.2
	c0-0.8,0.7-1.5,1.5-1.5s1.5,0.7,1.5,1.5v0.2c0,0.8-0.7,1.5-1.5,1.5S0.5,14.7,0.5,13.8z M0.5,3.6V3.4c0-0.8,0.7-1.5,1.5-1.5
	s1.5,0.7,1.5,1.5v0.2c0,0.8-0.7,1.5-1.5,1.5S0.5,4.5,0.5,3.6z M0.5-6.6v-0.2c0-0.8,0.7-1.5,1.5-1.5s1.5,0.7,1.5,1.5v0.2
	c0,0.8-0.7,1.5-1.5,1.5S0.5-5.7,0.5-6.6z M0.5-16.8V-17c0-0.8,0.7-1.5,1.5-1.5s1.5,0.7,1.5,1.5v0.2c0,0.8-0.7,1.5-1.5,1.5
	S0.5-15.9,0.5-16.8z"/>
</svg>
