<?xml version="1.0" encoding="utf-8"?>
<!-- Generator: Adobe Illustrator 19.2.1, SVG Export Plug-In . SVG Version: 6.00 Build 0)  -->
<svg version="1.1" id="FOND" xmlns="http://www.w3.org/2000/svg" xmlns:xlink="http://www.w3.org/1999/xlink" x="0px" y="0px"
	 width="10.5px" height="3px" viewBox="0 0 10.5 3" style="enable-background:new 0 0 10.5 3;" xml:space="preserve">
<style type="text/css">
	.st0{fill:#FFFFFF;}
</style>
<title>dot</title>
<path class="st0" d="M1657.7,3h-0.2c-0.8,0-1.5-0.7-1.5-1.5s0.7-1.5,1.5-1.5h0.2c0.8,0,1.5,0.7,1.5,1.5S1658.6,3,1657.7,3z
	 M1647.5,3h-0.2c-0.8,0-1.5-0.7-1.5-1.5s0.7-1.5,1.5-1.5h0.2c0.8,0,1.5,0.7,1.5,1.5S1648.4,3,1647.5,3z M1637.3,3h-0.2
	c-0.8,0-1.5-0.7-1.5-1.5s0.7-1.5,1.5-1.5h0.2c0.8,0,1.5,0.7,1.5,1.5C1638.8,2.3,1638.2,3,1637.3,3L1637.3,3z M1627.1,3h-0.2
	c-0.8,0-1.5-0.7-1.5-1.5s0.7-1.5,1.5-1.5h0.2c0.8,0,1.5,0.7,1.5,1.5C1628.6,2.3,1628,3,1627.1,3L1627.1,3z M1616.9,3h-0.2
	c-0.8,0-1.5-0.7-1.5-1.5s0.7-1.5,1.5-1.5h0.2c0.8,0,1.5,0.7,1.5,1.5C1618.4,2.3,1617.8,3,1616.9,3L1616.9,3z M1606.7,3h-0.2
	c-0.8,0-1.5-0.7-1.5-1.5s0.7-1.5,1.5-1.5h0.2c0.8,0,1.5,0.7,1.5,1.5S1607.6,3,1606.7,3L1606.7,3z M1596.5,3h-0.2
	c-0.8,0-1.5-0.7-1.5-1.5s0.7-1.5,1.5-1.5h0.2c0.8,0,1.5,0.7,1.5,1.5S1597.4,3,1596.5,3L1596.5,3z M1586.3,3h-0.2
	c-0.8,0-1.5-0.7-1.5-1.5s0.7-1.5,1.5-1.5h0.2c0.8,0,1.5,0.7,1.5,1.5C1587.8,2.3,1587.2,3,1586.3,3L1586.3,3z M1576.1,3h-0.2
	c-0.8,0-1.5-0.7-1.5-1.5s0.7-1.5,1.5-1.5h0.2c0.8,0,1.5,0.7,1.5,1.5C1577.6,2.3,1577,3,1576.1,3L1576.1,3z M1565.9,3h-0.2
	c-0.8,0-1.5-0.7-1.5-1.5s0.7-1.5,1.5-1.5h0.2c0.8,0,1.5,0.7,1.5,1.5C1567.4,2.3,1566.8,3,1565.9,3L1565.9,3z M1555.7,3h-0.2
	c-0.8,0-1.5-0.7-1.5-1.5s0.7-1.5,1.5-1.5h0.2c0.8,0,1.5,0.7,1.5,1.5S1556.6,3,1555.7,3L1555.7,3z M1545.5,3h-0.2
	c-0.8,0-1.5-0.7-1.5-1.5s0.7-1.5,1.5-1.5h0.2c0.8,0,1.5,0.7,1.5,1.5S1546.4,3,1545.5,3L1545.5,3z M1535.3,3h-0.2
	c-0.8,0-1.5-0.7-1.5-1.5s0.7-1.5,1.5-1.5h0.2c0.8,0,1.5,0.7,1.5,1.5C1536.8,2.3,1536.2,3,1535.3,3L1535.3,3z M1525.1,3h-0.2
	c-0.8,0-1.5-0.7-1.5-1.5s0.7-1.5,1.5-1.5h0.2c0.8,0,1.5,0.7,1.5,1.5C1526.6,2.3,1526,3,1525.1,3L1525.1,3z M1514.9,3h-0.2
	c-0.8,0-1.5-0.7-1.5-1.5s0.7-1.5,1.5-1.5h0.2c0.8,0,1.5,0.7,1.5,1.5C1516.4,2.3,1515.8,3,1514.9,3L1514.9,3z M1504.7,3h-0.2
	c-0.8,0-1.5-0.7-1.5-1.5s0.7-1.5,1.5-1.5h0.2c0.8,0,1.5,0.7,1.5,1.5S1505.6,3,1504.7,3L1504.7,3z M1494.5,3h-0.2
	c-0.8,0-1.5-0.7-1.5-1.5s0.7-1.5,1.5-1.5h0.2c0.8,0,1.5,0.7,1.5,1.5S1495.4,3,1494.5,3L1494.5,3z M1484.3,3h-0.2
	c-0.8,0-1.5-0.7-1.5-1.5s0.7-1.5,1.5-1.5h0.2c0.8,0,1.5,0.7,1.5,1.5C1485.8,2.3,1485.2,3,1484.3,3L1484.3,3z M1474.1,3h-0.2
	c-0.8,0-1.5-0.7-1.5-1.5s0.7-1.5,1.5-1.5h0.2c0.8,0,1.5,0.7,1.5,1.5C1475.6,2.3,1475,3,1474.1,3L1474.1,3z M1463.9,3h-0.2
	c-0.8,0-1.5-0.7-1.5-1.5s0.7-1.5,1.5-1.5h0.2c0.8,0,1.5,0.7,1.5,1.5C1465.4,2.3,1464.8,3,1463.9,3L1463.9,3z M1453.7,3h-0.2
	c-0.8,0-1.5-0.7-1.5-1.5s0.7-1.5,1.5-1.5h0.2c0.8,0,1.5,0.7,1.5,1.5S1454.6,3,1453.7,3L1453.7,3z M1443.5,3h-0.2
	c-0.8,0-1.5-0.7-1.5-1.5s0.7-1.5,1.5-1.5h0.2c0.8,0,1.5,0.7,1.5,1.5S1444.4,3,1443.5,3L1443.5,3z M1433.3,3h-0.2
	c-0.8,0-1.5-0.7-1.5-1.5s0.7-1.5,1.5-1.5h0.2c0.8,0,1.5,0.7,1.5,1.5C1434.8,2.3,1434.2,3,1433.3,3L1433.3,3z M1423.1,3h-0.2
	c-0.8,0-1.5-0.7-1.5-1.5s0.7-1.5,1.5-1.5h0.2c0.8,0,1.5,0.7,1.5,1.5C1424.6,2.3,1424,3,1423.1,3L1423.1,3z M1412.9,3h-0.2
	c-0.8,0-1.5-0.7-1.5-1.5s0.7-1.5,1.5-1.5h0.2c0.8,0,1.5,0.7,1.5,1.5C1414.4,2.3,1413.8,3,1412.9,3L1412.9,3z M1402.7,3h-0.2
	c-0.8,0-1.5-0.7-1.5-1.5s0.7-1.5,1.5-1.5h0.2c0.8,0,1.5,0.7,1.5,1.5S1403.6,3,1402.7,3L1402.7,3z M1392.5,3h-0.2
	c-0.8,0-1.5-0.7-1.5-1.5s0.7-1.5,1.5-1.5h0.2c0.8,0,1.5,0.7,1.5,1.5S1393.4,3,1392.5,3L1392.5,3z M1382.3,3h-0.2
	c-0.8,0-1.5-0.7-1.5-1.5s0.7-1.5,1.5-1.5h0.2c0.8,0,1.5,0.7,1.5,1.5C1383.8,2.3,1383.2,3,1382.3,3L1382.3,3L1382.3,3z M1372.1,3
	h-0.2c-0.8,0-1.5-0.7-1.5-1.5s0.7-1.5,1.5-1.5h0.2c0.8,0,1.5,0.7,1.5,1.5C1373.6,2.3,1373,3,1372.1,3L1372.1,3L1372.1,3z M1361.9,3
	h-0.2c-0.8,0-1.5-0.7-1.5-1.5s0.7-1.5,1.5-1.5h0.2c0.8,0,1.5,0.7,1.5,1.5C1363.4,2.3,1362.8,3,1361.9,3L1361.9,3L1361.9,3z
	 M1351.7,3h-0.2c-0.8,0-1.5-0.7-1.5-1.5s0.7-1.5,1.5-1.5h0.2c0.8,0,1.5,0.7,1.5,1.5S1352.6,3,1351.7,3L1351.7,3z M1341.5,3h-0.2
	c-0.8,0-1.5-0.7-1.5-1.5s0.7-1.5,1.5-1.5h0.2c0.8,0,1.5,0.7,1.5,1.5S1342.4,3,1341.5,3L1341.5,3z M1331.3,3h-0.2
	c-0.8,0-1.5-0.7-1.5-1.5s0.7-1.5,1.5-1.5h0.2c0.8,0,1.5,0.7,1.5,1.5C1332.8,2.3,1332.2,3,1331.3,3L1331.3,3z M1321.1,3h-0.2
	c-0.8,0-1.5-0.7-1.5-1.5s0.7-1.5,1.5-1.5h0.2c0.8,0,1.5,0.7,1.5,1.5C1322.6,2.3,1322,3,1321.1,3L1321.1,3z M1310.9,3h-0.2
	c-0.8,0-1.5-0.7-1.5-1.5s0.7-1.5,1.5-1.5h0.2c0.8,0,1.5,0.7,1.5,1.5C1312.4,2.3,1311.8,3,1310.9,3L1310.9,3z M1300.7,3h-0.2
	c-0.8,0-1.5-0.7-1.5-1.5s0.7-1.5,1.5-1.5h0.2c0.8,0,1.5,0.7,1.5,1.5S1301.6,3,1300.7,3L1300.7,3z M1290.5,3h-0.2
	c-0.8,0-1.5-0.7-1.5-1.5s0.7-1.5,1.5-1.5h0.2c0.8,0,1.5,0.7,1.5,1.5S1291.4,3,1290.5,3L1290.5,3z M1280.3,3h-0.2
	c-0.8,0-1.5-0.7-1.5-1.5s0.7-1.5,1.5-1.5h0.2c0.8,0,1.5,0.7,1.5,1.5C1281.8,2.3,1281.2,3,1280.3,3L1280.3,3z M1270.1,3h-0.2
	c-0.8,0-1.5-0.7-1.5-1.5s0.7-1.5,1.5-1.5h0.2c0.8,0,1.5,0.7,1.5,1.5C1271.6,2.3,1271,3,1270.1,3L1270.1,3z M1259.9,3h-0.2
	c-0.8,0-1.5-0.7-1.5-1.5s0.7-1.5,1.5-1.5h0.2c0.8,0,1.5,0.7,1.5,1.5C1261.4,2.3,1260.8,3,1259.9,3L1259.9,3z M1249.7,3h-0.2
	c-0.8,0-1.5-0.7-1.5-1.5s0.7-1.5,1.5-1.5h0.2c0.8,0,1.5,0.7,1.5,1.5S1250.6,3,1249.7,3L1249.7,3z M1239.5,3h-0.2
	c-0.8,0-1.5-0.7-1.5-1.5s0.7-1.5,1.5-1.5h0.2c0.8,0,1.5,0.7,1.5,1.5S1240.4,3,1239.5,3L1239.5,3z M1229.3,3h-0.2
	c-0.8,0-1.5-0.7-1.5-1.5s0.7-1.5,1.5-1.5h0.2c0.8,0,1.5,0.7,1.5,1.5C1230.8,2.3,1230.2,3,1229.3,3L1229.3,3z M1219.1,3h-0.2
	c-0.8,0-1.5-0.7-1.5-1.5s0.7-1.5,1.5-1.5h0.2c0.8,0,1.5,0.7,1.5,1.5C1220.6,2.3,1220,3,1219.1,3L1219.1,3z M1208.9,3h-0.2
	c-0.8,0-1.5-0.7-1.5-1.5s0.7-1.5,1.5-1.5h0.2c0.8,0,1.5,0.7,1.5,1.5C1210.4,2.3,1209.8,3,1208.9,3L1208.9,3z M1198.7,3h-0.2
	c-0.8,0-1.5-0.7-1.5-1.5s0.7-1.5,1.5-1.5h0.2c0.8,0,1.5,0.7,1.5,1.5S1199.6,3,1198.7,3L1198.7,3z M1188.5,3h-0.2
	c-0.8,0-1.5-0.7-1.5-1.5s0.7-1.5,1.5-1.5h0.2c0.8,0,1.5,0.7,1.5,1.5S1189.4,3,1188.5,3L1188.5,3z M1178.3,3h-0.2
	c-0.8,0-1.5-0.7-1.5-1.5s0.7-1.5,1.5-1.5h0.2c0.8,0,1.5,0.7,1.5,1.5C1179.8,2.3,1179.2,3,1178.3,3L1178.3,3z M1168.1,3h-0.2
	c-0.8,0-1.5-0.7-1.5-1.5s0.7-1.5,1.5-1.5h0.2c0.8,0,1.5,0.7,1.5,1.5C1169.6,2.3,1169,3,1168.1,3L1168.1,3z M1157.9,3h-0.2
	c-0.8,0-1.5-0.7-1.5-1.5s0.7-1.5,1.5-1.5h0.2c0.8,0,1.5,0.7,1.5,1.5C1159.4,2.3,1158.8,3,1157.9,3L1157.9,3z M1147.7,3h-0.2
	c-0.8,0-1.5-0.7-1.5-1.5s0.7-1.5,1.5-1.5h0.2c0.8,0,1.5,0.7,1.5,1.5S1148.6,3,1147.7,3L1147.7,3z M1137.5,3h-0.2
	c-0.8,0-1.5-0.7-1.5-1.5s0.7-1.5,1.5-1.5h0.2c0.8,0,1.5,0.7,1.5,1.5S1138.4,3,1137.5,3L1137.5,3z M1127.3,3h-0.2
	c-0.8,0-1.5-0.7-1.5-1.5s0.7-1.5,1.5-1.5h0.2c0.8,0,1.5,0.7,1.5,1.5C1128.8,2.3,1128.2,3,1127.3,3L1127.3,3L1127.3,3z M1117.1,3
	h-0.2c-0.8,0-1.5-0.7-1.5-1.5s0.7-1.5,1.5-1.5h0.2c0.8,0,1.5,0.7,1.5,1.5C1118.6,2.3,1118,3,1117.1,3L1117.1,3L1117.1,3z M1106.9,3
	h-0.2c-0.8,0-1.5-0.7-1.5-1.5s0.7-1.5,1.5-1.5h0.2c0.8,0,1.5,0.7,1.5,1.5C1108.4,2.3,1107.8,3,1106.9,3L1106.9,3L1106.9,3z
	 M1096.7,3h-0.2c-0.8,0-1.5-0.7-1.5-1.5s0.7-1.5,1.5-1.5h0.2c0.8,0,1.5,0.7,1.5,1.5S1097.6,3,1096.7,3L1096.7,3z M1086.5,3h-0.2
	c-0.8,0-1.5-0.7-1.5-1.5s0.7-1.5,1.5-1.5h0.2c0.8,0,1.5,0.7,1.5,1.5S1087.4,3,1086.5,3L1086.5,3z M1076.3,3h-0.2
	c-0.8,0-1.5-0.7-1.5-1.5s0.7-1.5,1.5-1.5h0.2c0.8,0,1.5,0.7,1.5,1.5C1077.8,2.3,1077.2,3,1076.3,3L1076.3,3z M1066.1,3h-0.2
	c-0.8,0-1.5-0.7-1.5-1.5s0.7-1.5,1.5-1.5h0.2c0.8,0,1.5,0.7,1.5,1.5C1067.6,2.3,1067,3,1066.1,3L1066.1,3z M1055.9,3h-0.2
	c-0.8,0-1.5-0.7-1.5-1.5s0.7-1.5,1.5-1.5h0.2c0.8,0,1.5,0.7,1.5,1.5C1057.4,2.3,1056.8,3,1055.9,3L1055.9,3z M1045.7,3h-0.2
	c-0.8,0-1.5-0.7-1.5-1.5s0.7-1.5,1.5-1.5h0.2c0.8,0,1.5,0.7,1.5,1.5S1046.6,3,1045.7,3L1045.7,3z M1035.5,3h-0.2
	c-0.8,0-1.5-0.7-1.5-1.5s0.7-1.5,1.5-1.5h0.2c0.8,0,1.5,0.7,1.5,1.5S1036.4,3,1035.5,3L1035.5,3z M1025.3,3h-0.2
	c-0.8,0-1.5-0.7-1.5-1.5s0.7-1.5,1.5-1.5h0.2c0.8,0,1.5,0.7,1.5,1.5C1026.8,2.3,1026.2,3,1025.3,3L1025.3,3z M1015.1,3h-0.2
	c-0.8,0-1.5-0.7-1.5-1.5s0.7-1.5,1.5-1.5h0.2c0.8,0,1.5,0.7,1.5,1.5S1016,3,1015.1,3L1015.1,3z M1004.9,3h-0.2
	c-0.8,0-1.5-0.7-1.5-1.5s0.7-1.5,1.5-1.5h0.2c0.8,0,1.5,0.7,1.5,1.5S1005.8,3,1004.9,3L1004.9,3z M994.7,3h-0.2
	c-0.8,0-1.5-0.7-1.5-1.5s0.7-1.5,1.5-1.5h0.2c0.8,0,1.5,0.7,1.5,1.5S995.6,3,994.7,3L994.7,3z M984.5,3h-0.2c-0.8,0-1.5-0.7-1.5-1.5
	s0.7-1.5,1.5-1.5h0.2c0.8,0,1.5,0.7,1.5,1.5S985.4,3,984.5,3z M974.3,3h-0.2c-0.8,0-1.5-0.7-1.5-1.5s0.7-1.5,1.5-1.5h0.2
	c0.8,0,1.5,0.7,1.5,1.5S975.2,3,974.3,3L974.3,3z M964.1,3h-0.2c-0.8,0-1.5-0.7-1.5-1.5s0.7-1.5,1.5-1.5l0,0h0.2
	c0.8,0,1.5,0.7,1.5,1.5S965,3,964.1,3z M953.9,3h-0.2c-0.8,0-1.5-0.7-1.5-1.5s0.7-1.5,1.5-1.5h0.2c0.8,0,1.5,0.7,1.5,1.5
	S954.8,3,953.9,3z M943.7,3h-0.2c-0.8,0-1.5-0.7-1.5-1.5s0.7-1.5,1.5-1.5h0.2c0.8,0,1.5,0.7,1.5,1.5S944.6,3,943.7,3z M933.5,3h-0.2
	c-0.8,0-1.5-0.7-1.5-1.5s0.7-1.5,1.5-1.5h0.2c0.8,0,1.5,0.7,1.5,1.5S934.4,3,933.5,3z M923.3,3h-0.2c-0.8,0-1.5-0.7-1.5-1.5
	s0.7-1.5,1.5-1.5h0.2c0.8,0,1.5,0.7,1.5,1.5S924.2,3,923.3,3z M913.1,3h-0.2c-0.8,0-1.5-0.7-1.5-1.5s0.7-1.5,1.5-1.5h0.2
	c0.8,0,1.5,0.7,1.5,1.5S914,3,913.1,3z M902.9,3h-0.2c-0.8,0-1.5-0.7-1.5-1.5s0.7-1.5,1.5-1.5h0.2c0.8,0,1.5,0.7,1.5,1.5
	S903.8,3,902.9,3z M892.7,3h-0.2c-0.8,0-1.5-0.7-1.5-1.5s0.7-1.5,1.5-1.5l0,0h0.2c0.8,0,1.5,0.7,1.5,1.5S893.6,3,892.7,3L892.7,3z
	 M882.5,3h-0.2c-0.8,0-1.5-0.7-1.5-1.5s0.7-1.5,1.5-1.5h0.2c0.8,0,1.5,0.7,1.5,1.5S883.4,3,882.5,3z M872.3,3h-0.2
	c-0.8,0-1.5-0.7-1.5-1.5s0.7-1.5,1.5-1.5l0,0h0.2c0.8,0,1.5,0.7,1.5,1.5S873.2,3,872.3,3L872.3,3z M862.1,3h-0.2
	c-0.8,0-1.5-0.7-1.5-1.5s0.7-1.5,1.5-1.5h0.2c0.8,0,1.5,0.7,1.5,1.5S863,3,862.1,3z M851.9,3h-0.2c-0.8,0-1.5-0.7-1.5-1.5
	s0.7-1.5,1.5-1.5h0.2c0.8,0,1.5,0.7,1.5,1.5S852.8,3,851.9,3z M841.7,3h-0.2c-0.8,0-1.5-0.7-1.5-1.5s0.7-1.5,1.5-1.5h0.2
	c0.8,0,1.5,0.7,1.5,1.5S842.6,3,841.7,3z M831.5,3h-0.2c-0.8,0-1.5-0.7-1.5-1.5s0.7-1.5,1.5-1.5h0.2c0.8,0,1.5,0.7,1.5,1.5
	S832.4,3,831.5,3z M821.3,3h-0.2c-0.8,0-1.5-0.7-1.5-1.5s0.7-1.5,1.5-1.5h0.2c0.8,0,1.5,0.7,1.5,1.5S822.2,3,821.3,3z M811.1,3h-0.2
	c-0.8,0-1.5-0.7-1.5-1.5s0.7-1.5,1.5-1.5h0.2c0.8,0,1.5,0.7,1.5,1.5S812,3,811.1,3z M800.9,3h-0.2c-0.8,0-1.5-0.7-1.5-1.5
	s0.7-1.5,1.5-1.5h0.2c0.8,0,1.5,0.7,1.5,1.5S801.8,3,800.9,3z M790.7,3h-0.2c-0.8,0-1.5-0.7-1.5-1.5s0.7-1.5,1.5-1.5h0.2
	c0.8,0,1.5,0.7,1.5,1.5S791.6,3,790.7,3z M780.5,3h-0.2c-0.8,0-1.5-0.7-1.5-1.5s0.7-1.5,1.5-1.5h0.2c0.8,0,1.5,0.7,1.5,1.5
	S781.4,3,780.5,3z M770.3,3h-0.2c-0.8,0-1.5-0.7-1.5-1.5s0.7-1.5,1.5-1.5h0.2c0.8,0,1.5,0.7,1.5,1.5S771.2,3,770.3,3z M760.1,3h-0.2
	c-0.8,0-1.5-0.7-1.5-1.5s0.7-1.5,1.5-1.5h0.2c0.8,0,1.5,0.7,1.5,1.5S761,3,760.1,3z M749.9,3h-0.2c-0.8,0-1.5-0.7-1.5-1.5
	s0.7-1.5,1.5-1.5h0.2c0.8,0,1.5,0.7,1.5,1.5S750.8,3,749.9,3z M739.7,3h-0.2c-0.8,0-1.5-0.7-1.5-1.5s0.7-1.5,1.5-1.5h0.2
	c0.8,0,1.5,0.7,1.5,1.5S740.6,3,739.7,3z M729.5,3h-0.2c-0.8,0-1.5-0.7-1.5-1.5s0.7-1.5,1.5-1.5h0.2c0.8,0,1.5,0.7,1.5,1.5
	S730.4,3,729.5,3z M719.3,3h-0.2c-0.8,0-1.5-0.7-1.5-1.5s0.7-1.5,1.5-1.5h0.2c0.8,0,1.5,0.7,1.5,1.5S720.2,3,719.3,3z M709.1,3h-0.2
	c-0.8,0-1.5-0.7-1.5-1.5s0.7-1.5,1.5-1.5h0.2c0.8,0,1.5,0.7,1.5,1.5S710,3,709.1,3z M698.9,3h-0.2c-0.8,0-1.5-0.7-1.5-1.5
	s0.7-1.5,1.5-1.5h0.2c0.8,0,1.5,0.7,1.5,1.5S699.8,3,698.9,3z M688.7,3h-0.2c-0.8,0-1.5-0.7-1.5-1.5s0.7-1.5,1.5-1.5h0.2
	c0.8,0,1.5,0.7,1.5,1.5S689.6,3,688.7,3z M678.5,3h-0.2c-0.8,0-1.5-0.7-1.5-1.5s0.7-1.5,1.5-1.5h0.2c0.8,0,1.5,0.7,1.5,1.5
	S679.4,3,678.5,3z M668.3,3h-0.2c-0.8,0-1.5-0.7-1.5-1.5s0.7-1.5,1.5-1.5h0.2c0.8,0,1.5,0.7,1.5,1.5S669.2,3,668.3,3z M658.1,3h-0.2
	c-0.8,0-1.5-0.7-1.5-1.5s0.7-1.5,1.5-1.5h0.2c0.8,0,1.5,0.7,1.5,1.5S659,3,658.1,3z M647.9,3h-0.2c-0.8,0-1.5-0.7-1.5-1.5
	s0.7-1.5,1.5-1.5h0.2c0.8,0,1.5,0.7,1.5,1.5S648.8,3,647.9,3z M637.7,3h-0.2c-0.8,0-1.5-0.7-1.5-1.5s0.7-1.5,1.5-1.5h0.2
	c0.8,0,1.5,0.7,1.5,1.5S638.6,3,637.7,3z M627.5,3h-0.2c-0.8,0-1.5-0.7-1.5-1.5s0.7-1.5,1.5-1.5h0.2c0.8,0,1.5,0.7,1.5,1.5
	S628.4,3,627.5,3z M617.3,3h-0.2c-0.8,0-1.5-0.7-1.5-1.5s0.7-1.5,1.5-1.5h0.2c0.8,0,1.5,0.7,1.5,1.5S618.2,3,617.3,3z M607.1,3h-0.2
	c-0.8,0-1.5-0.7-1.5-1.5s0.7-1.5,1.5-1.5h0.2c0.8,0,1.5,0.7,1.5,1.5S608,3,607.1,3z M596.9,3h-0.2c-0.8,0-1.5-0.7-1.5-1.5
	s0.7-1.5,1.5-1.5h0.2c0.8,0,1.5,0.7,1.5,1.5S597.8,3,596.9,3z M586.7,3h-0.2c-0.8,0-1.5-0.7-1.5-1.5s0.7-1.5,1.5-1.5h0.2
	c0.8,0,1.5,0.7,1.5,1.5S587.6,3,586.7,3z M576.5,3h-0.2c-0.8,0-1.5-0.7-1.5-1.5s0.7-1.5,1.5-1.5h0.2c0.8,0,1.5,0.7,1.5,1.5
	S577.4,3,576.5,3z M566.3,3h-0.2c-0.8,0-1.5-0.7-1.5-1.5s0.7-1.5,1.5-1.5h0.2c0.8,0,1.5,0.7,1.5,1.5S567.2,3,566.3,3z M556.1,3h-0.2
	c-0.8,0-1.5-0.7-1.5-1.5s0.7-1.5,1.5-1.5h0.2c0.8,0,1.5,0.7,1.5,1.5S557,3,556.1,3z M545.9,3h-0.2c-0.8,0-1.5-0.7-1.5-1.5
	s0.7-1.5,1.5-1.5h0.2c0.8,0,1.5,0.7,1.5,1.5S546.8,3,545.9,3z M535.7,3h-0.2c-0.8,0-1.5-0.7-1.5-1.5s0.7-1.5,1.5-1.5h0.2
	c0.8,0,1.5,0.7,1.5,1.5S536.6,3,535.7,3z M525.5,3h-0.2c-0.8,0-1.5-0.7-1.5-1.5s0.7-1.5,1.5-1.5h0.2c0.8,0,1.5,0.7,1.5,1.5
	S526.4,3,525.5,3z M515.3,3h-0.2c-0.8,0-1.5-0.7-1.5-1.5s0.7-1.5,1.5-1.5l0,0h0.2c0.8,0,1.5,0.7,1.5,1.5S516.2,3,515.3,3z M505.1,3
	h-0.2c-0.8,0-1.5-0.7-1.5-1.5s0.7-1.5,1.5-1.5h0.2c0.8,0,1.5,0.7,1.5,1.5S506,3,505.1,3z M494.9,3h-0.2c-0.8,0-1.5-0.7-1.5-1.5
	s0.7-1.5,1.5-1.5h0.2c0.8,0,1.5,0.7,1.5,1.5S495.8,3,494.9,3z M484.7,3h-0.2c-0.8,0-1.5-0.7-1.5-1.5s0.7-1.5,1.5-1.5h0.2
	c0.8,0,1.5,0.7,1.5,1.5S485.6,3,484.7,3z M474.5,3h-0.2c-0.8,0-1.5-0.7-1.5-1.5s0.7-1.5,1.5-1.5h0.2c0.8,0,1.5,0.7,1.5,1.5
	S475.4,3,474.5,3z M464.3,3h-0.2c-0.8,0-1.5-0.7-1.5-1.5s0.7-1.5,1.5-1.5h0.2c0.8,0,1.5,0.7,1.5,1.5S465.2,3,464.3,3z M454.1,3h-0.2
	c-0.8,0-1.5-0.7-1.5-1.5s0.7-1.5,1.5-1.5h0.2c0.8,0,1.5,0.7,1.5,1.5S455,3,454.1,3L454.1,3z M443.9,3h-0.2c-0.8,0-1.5-0.7-1.5-1.5
	s0.7-1.5,1.5-1.5h0.2c0.8,0,1.5,0.7,1.5,1.5S444.8,3,443.9,3z M433.7,3h-0.2c-0.8,0-1.5-0.7-1.5-1.5s0.7-1.5,1.5-1.5h0.2
	c0.8,0,1.5,0.7,1.5,1.5S434.6,3,433.7,3z M423.5,3h-0.2c-0.8,0-1.5-0.7-1.5-1.5s0.7-1.5,1.5-1.5h0.2c0.8,0,1.5,0.7,1.5,1.5
	S424.4,3,423.5,3z M413.3,3h-0.2c-0.8,0-1.5-0.7-1.5-1.5s0.7-1.5,1.5-1.5h0.2c0.8,0,1.5,0.7,1.5,1.5S414.2,3,413.3,3z M403.1,3h-0.2
	c-0.8,0-1.5-0.7-1.5-1.5s0.7-1.5,1.5-1.5h0.2c0.8,0,1.5,0.7,1.5,1.5S404,3,403.1,3z M392.9,3h-0.2c-0.8,0-1.5-0.7-1.5-1.5
	s0.7-1.5,1.5-1.5h0.2c0.8,0,1.5,0.7,1.5,1.5S393.8,3,392.9,3z M382.7,3h-0.2c-0.8,0-1.5-0.7-1.5-1.5s0.7-1.5,1.5-1.5h0.2
	c0.8,0,1.5,0.7,1.5,1.5S383.6,3,382.7,3z M372.5,3h-0.2c-0.8,0-1.5-0.7-1.5-1.5s0.7-1.5,1.5-1.5h0.2c0.8,0,1.5,0.7,1.5,1.5
	S373.4,3,372.5,3z M362.3,3h-0.2c-0.8,0-1.5-0.7-1.5-1.5s0.7-1.5,1.5-1.5h0.2c0.8,0,1.5,0.7,1.5,1.5S363.2,3,362.3,3z M352.1,3h-0.2
	c-0.8,0-1.5-0.7-1.5-1.5s0.7-1.5,1.5-1.5h0.2c0.8,0,1.5,0.7,1.5,1.5S353,3,352.1,3z M341.9,3h-0.2c-0.8,0-1.5-0.7-1.5-1.5
	s0.7-1.5,1.5-1.5h0.2c0.8,0,1.5,0.7,1.5,1.5S342.8,3,341.9,3z M331.7,3h-0.2c-0.8,0-1.5-0.7-1.5-1.5s0.7-1.5,1.5-1.5h0.2
	c0.8,0,1.5,0.7,1.5,1.5S332.6,3,331.7,3z M321.5,3h-0.2c-0.8,0-1.5-0.7-1.5-1.5s0.7-1.5,1.5-1.5h0.2c0.8,0,1.5,0.7,1.5,1.5
	S322.4,3,321.5,3z M311.3,3h-0.2c-0.8,0-1.5-0.7-1.5-1.5s0.7-1.5,1.5-1.5h0.2c0.8,0,1.5,0.7,1.5,1.5S312.2,3,311.3,3z M301.1,3h-0.2
	c-0.8,0-1.5-0.7-1.5-1.5s0.7-1.5,1.5-1.5h0.2c0.8,0,1.5,0.7,1.5,1.5S302,3,301.1,3z M290.9,3h-0.2c-0.8,0-1.5-0.7-1.5-1.5
	s0.7-1.5,1.5-1.5h0.2c0.8,0,1.5,0.7,1.5,1.5S291.8,3,290.9,3z M280.7,3h-0.2c-0.8,0-1.5-0.7-1.5-1.5s0.7-1.5,1.5-1.5h0.2
	c0.8,0,1.5,0.7,1.5,1.5S281.6,3,280.7,3z M270.5,3h-0.2c-0.8,0-1.5-0.7-1.5-1.5s0.7-1.5,1.5-1.5h0.2c0.8,0,1.5,0.7,1.5,1.5
	S271.4,3,270.5,3z M260.3,3h-0.2c-0.8,0-1.5-0.7-1.5-1.5s0.7-1.5,1.5-1.5h0.2c0.8,0,1.5,0.7,1.5,1.5S261.2,3,260.3,3z M250.1,3h-0.2
	c-0.8,0-1.5-0.7-1.5-1.5s0.7-1.5,1.5-1.5l0,0h0.2c0.8,0,1.5,0.7,1.5,1.5S251,3,250.1,3z M239.9,3h-0.2c-0.8,0-1.5-0.7-1.5-1.5
	s0.7-1.5,1.5-1.5h0.2c0.8,0,1.5,0.7,1.5,1.5S240.8,3,239.9,3z M229.7,3h-0.2c-0.8,0-1.5-0.7-1.5-1.5s0.7-1.5,1.5-1.5h0.2
	c0.8,0,1.5,0.7,1.5,1.5S230.6,3,229.7,3L229.7,3z M219.5,3h-0.2c-0.8,0-1.5-0.7-1.5-1.5s0.7-1.5,1.5-1.5h0.2c0.8,0,1.5,0.7,1.5,1.5
	S220.4,3,219.5,3z M209.3,3h-0.2c-0.8,0-1.5-0.7-1.5-1.5s0.7-1.5,1.5-1.5h0.2c0.8,0,1.5,0.7,1.5,1.5S210.2,3,209.3,3z M199.1,3h-0.2
	c-0.8,0-1.5-0.7-1.5-1.5s0.7-1.5,1.5-1.5h0.2c0.8,0,1.5,0.7,1.5,1.5S200,3,199.1,3z M188.9,3h-0.2c-0.8,0-1.5-0.7-1.5-1.5
	s0.7-1.5,1.5-1.5h0.2c0.8,0,1.5,0.7,1.5,1.5S189.8,3,188.9,3z M178.7,3h-0.2c-0.8,0-1.5-0.7-1.5-1.5s0.7-1.5,1.5-1.5h0.2
	c0.8,0,1.5,0.7,1.5,1.5S179.6,3,178.7,3z M168.5,3h-0.2c-0.8,0-1.5-0.7-1.5-1.5s0.7-1.5,1.5-1.5h0.2c0.8,0,1.5,0.7,1.5,1.5
	S169.4,3,168.5,3z M158.3,3h-0.2c-0.8,0-1.5-0.7-1.5-1.5s0.7-1.5,1.5-1.5h0.2c0.8,0,1.5,0.7,1.5,1.5S159.2,3,158.3,3z M148.1,3h-0.2
	c-0.8,0-1.5-0.7-1.5-1.5s0.7-1.5,1.5-1.5h0.2c0.8,0,1.5,0.7,1.5,1.5S149,3,148.1,3z M137.9,3h-0.2c-0.8,0-1.5-0.7-1.5-1.5
	s0.7-1.5,1.5-1.5h0.2c0.8,0,1.5,0.7,1.5,1.5S138.8,3,137.9,3z M127.7,3h-0.2c-0.8,0-1.5-0.7-1.5-1.5s0.7-1.5,1.5-1.5l0,0h0.2
	c0.8,0,1.5,0.7,1.5,1.5S128.6,3,127.7,3L127.7,3z M117.5,3h-0.2c-0.8,0-1.5-0.7-1.5-1.5s0.7-1.5,1.5-1.5h0.2c0.8,0,1.5,0.7,1.5,1.5
	S118.4,3,117.5,3z M107.3,3h-0.2c-0.8,0-1.5-0.7-1.5-1.5s0.7-1.5,1.5-1.5h0.2c0.8,0,1.5,0.7,1.5,1.5S108.2,3,107.3,3z M97.1,3h-0.2
	c-0.8,0-1.5-0.7-1.5-1.5S96.1,0,96.9,0h0.2c0.8,0,1.5,0.7,1.5,1.5S98,3,97.1,3z M86.9,3h-0.2c-0.8,0-1.5-0.7-1.5-1.5S85.9,0,86.7,0
	h0.2c0.8,0,1.5,0.7,1.5,1.5C88.4,2.3,87.8,3,86.9,3z M76.7,3h-0.2C75.7,3,75,2.3,75,1.5S75.7,0,76.5,0h0.2c0.8,0,1.5,0.7,1.5,1.5
	S77.6,3,76.7,3z M66.5,3h-0.2c-0.8,0-1.5-0.7-1.5-1.5S65.5,0,66.3,0h0.2C67.4,0,68,0.7,68,1.5S67.4,3,66.5,3L66.5,3z M56.3,3h-0.2
	c-0.8,0-1.5-0.7-1.5-1.5S55.3,0,56.1,0h0.2c0.8,0,1.5,0.7,1.5,1.5S57.2,3,56.3,3z M46.1,3h-0.2c-0.8,0-1.5-0.7-1.5-1.5
	S45.1,0,45.9,0h0.2c0.8,0,1.5,0.7,1.5,1.5S47,3,46.1,3z M35.9,3h-0.2c-0.8,0-1.5-0.7-1.5-1.5S34.9,0,35.7,0h0.2
	c0.8,0,1.5,0.7,1.5,1.5S36.8,3,35.9,3z M25.7,3h-0.2C24.7,3,24,2.3,24,1.5S24.7,0,25.5,0h0.2c0.8,0,1.5,0.7,1.5,1.5S26.6,3,25.7,3z
	 M15.5,3h-0.2c-0.8,0-1.5-0.7-1.5-1.5S14.5,0,15.3,0h0.2C16.4,0,17,0.7,17,1.5S16.4,3,15.5,3z M5.3,3H5.1C4.3,3,3.6,2.3,3.6,1.5
	S4.3,0,5.1,0h0.2c0.8,0,1.5,0.7,1.5,1.5S6.2,3,5.3,3z M-4.9,3h-0.2c-0.8,0-1.5-0.7-1.5-1.5S-5.9,0-5.1,0h0.2C-4,0-3.4,0.7-3.4,1.5
	S-4,3-4.9,3z M-15.1,3h-0.2c-0.8,0-1.5-0.7-1.5-1.5S-16.1,0-15.3,0c0,0,0,0,0,0h0.2c0.8,0,1.5,0.7,1.5,1.5S-14.2,3-15.1,3L-15.1,3z
	 M-25.3,3h-0.2C-26.3,3-27,2.3-27,1.5S-26.3,0-25.5,0h0.2c0.8,0,1.5,0.7,1.5,1.5S-24.4,3-25.3,3z M-35.5,3h-0.2
	c-0.8,0-1.5-0.7-1.5-1.5S-36.5,0-35.7,0h0.2c0.8,0,1.5,0.7,1.5,1.5S-34.6,3-35.5,3z M-45.7,3h-0.2c-0.8,0-1.5-0.7-1.5-1.5
	S-46.7,0-45.9,0h0.2c0.8,0,1.5,0.7,1.5,1.5S-44.8,3-45.7,3z M-55.9,3h-0.2c-0.8,0-1.5-0.7-1.5-1.5S-56.9,0-56.1,0h0.2
	c0.8,0,1.5,0.7,1.5,1.5S-55,3-55.9,3z"/>
</svg>
