<?xml version="1.0" encoding="utf-8"?>
<!-- Generator: Adobe Illustrator 22.0.1, SVG Export Plug-In . SVG Version: 6.00 Build 0)  -->
<svg version="1.1" id="Calque_1" xmlns="http://www.w3.org/2000/svg" xmlns:xlink="http://www.w3.org/1999/xlink" x="0px" y="0px"
	 viewBox="0 0 151.2 128.4" style="enable-background:new 0 0 151.2 128.4;" xml:space="preserve">
<style type="text/css">
	.st0{fill:#FFFFFF;}
	.st1{fill:#FF3D46;}
</style>
<g>
	<g>
		<path class="st0" d="M29.8,6.8c1.8,0,3.4-1.5,3.4-3.4S31.7,0,29.8,0s-3.4,1.5-3.4,3.4S27.9,6.8,29.8,6.8z"/>
		<path class="st0" d="M43.6,15.2c0-0.9-0.7-1.6-1.6-1.6c-0.2,0-0.3,0-0.5,0.1l0,0c-1.7,0.5-2.5,0.8-3.6,1.1c-0.4-1.9-0.4-2.1-1-4.6
			c-0.4-1.7-1.6-2.6-3.3-2.6h-3.7l0,0h-3.7c-1.7,0-2.9,1-3.3,2.6c-0.7,3-1.9,8.5-2.5,11.5c-0.2,0.9,0.4,1.8,1.3,2s1.7-0.4,1.9-1.3
			c0.4-2.1,1.9-9.2,2.1-9.5l0.8,6.2l-2.3,18.1l0,0c0,0.1,0,0.2,0,0.3c0,1,0.8,1.8,1.8,1.8c0.9,0,1.6-0.6,1.8-1.5l0,0
			c0.4-2,2.1-15.2,2.1-15.2L32,37.8l0,0c0.2,0.8,0.9,1.5,1.8,1.5c1,0,1.8-0.8,1.8-1.8c0-0.1,0-0.2,0-0.3l0,0L33.3,19l0.8-6.2
			c0.1,0.2,0.7,3.1,1,4.1c0.2,1,0.9,1.6,1.8,1.6c0.2,0,0.3,0,0.5-0.1l5.1-1.7l0,0C43.1,16.5,43.6,15.9,43.6,15.2z"/>
	</g>
</g>
<g>
	<rect x="41.4" y="4.4" class="st1" width="7.4" height="7.4"/>
</g>
<g>
	<g>
		<path class="st0" d="M69.7,6.8c1.8,0,3.4-1.5,3.4-3.4C73,1.6,71.5,0,69.7,0c-1.9,0-3.4,1.5-3.4,3.4C66.2,5.3,67.8,6.8,69.7,6.8z"
			/>
		<path class="st0" d="M83.4,15.2c0-0.9-0.7-1.6-1.6-1.6c-0.2,0-0.3,0-0.5,0.1l0,0c-1.7,0.5-2.5,0.8-3.6,1.1c-0.4-1.9-0.4-2.1-1-4.6
			c-0.4-1.7-1.6-2.6-3.3-2.6h-3.7l0,0H66c-1.7,0-2.9,1-3.3,2.6c-0.7,3-1.9,8.5-2.5,11.5c-0.2,0.9,0.4,1.8,1.3,2
			c0.9,0.2,1.7-0.4,1.9-1.3c0.4-2.1,1.9-9.2,2.1-9.5l0.8,6.2L64,37.2l0,0c0,0.1,0,0.2,0,0.3c0,1,0.8,1.8,1.8,1.8
			c0.9,0,1.6-0.6,1.8-1.5l0,0c0.4-2,2.1-15.2,2.1-15.2l2.1,15.2l0,0c0.2,0.8,0.9,1.5,1.8,1.5c1,0,1.8-0.8,1.8-1.8c0-0.1,0-0.2,0-0.3
			l0,0L73.1,19l0.8-6.2c0.1,0.2,0.7,3.1,1,4.1c0.2,1,0.9,1.6,1.8,1.6c0.2,0,0.3,0,0.5-0.1l5.1-1.7l0,0C83,16.5,83.4,15.9,83.4,15.2z
			"/>
	</g>
</g>
<g>
	<rect x="81.2" y="4.4" class="st1" width="7.4" height="7.4"/>
</g>
<g>
	<g>
		<path class="st0" d="M109.5,6.8c1.8,0,3.4-1.5,3.4-3.4S111.4,0,109.5,0s-3.4,1.5-3.4,3.4S107.6,6.8,109.5,6.8z"/>
		<path class="st0" d="M123.3,15.2c0-0.9-0.7-1.6-1.6-1.6c-0.2,0-0.3,0-0.5,0.1l0,0c-1.7,0.5-2.5,0.8-3.6,1.1
			c-0.4-1.9-0.4-2.1-1-4.6c-0.4-1.7-1.6-2.6-3.3-2.6h-3.7l0,0h-3.7c-1.7,0-2.9,1-3.3,2.6c-0.7,3-1.9,8.5-2.5,11.5
			c-0.2,0.9,0.4,1.8,1.3,2s1.7-0.4,1.9-1.3c0.4-2.1,1.9-9.2,2.1-9.5l0.8,6.2l-2.3,18.1l0,0c0,0.1,0,0.2,0,0.3c0,1,0.8,1.8,1.8,1.8
			c0.9,0,1.6-0.6,1.8-1.5l0,0c0.4-2,2.1-15.2,2.1-15.2l2.1,15.2l0,0c0.2,0.8,0.9,1.5,1.8,1.5c1,0,1.8-0.8,1.8-1.8c0-0.1,0-0.2,0-0.3
			l0,0L113,19l0.8-6.2c0.1,0.2,0.7,3.1,1,4.1c0.2,1,0.9,1.6,1.8,1.6c0.2,0,0.3,0,0.5-0.1l5.1-1.7l0,0
			C122.8,16.5,123.3,15.9,123.3,15.2z"/>
	</g>
</g>
<g>
	<rect x="121.1" y="4.4" class="st1" width="7.4" height="7.4"/>
</g>
<g>
	<g>
		<path class="st0" d="M29.8,95.8c1.8,0,3.4-1.5,3.4-3.4S31.7,89,29.8,89s-3.4,1.5-3.4,3.4S27.9,95.8,29.8,95.8z"/>
		<path class="st0" d="M43.6,104.2c0-0.9-0.7-1.6-1.6-1.6c-0.2,0-0.3,0-0.5,0.1l0,0c-1.7,0.5-2.5,0.8-3.6,1.1
			c-0.4-1.9-0.4-2.1-1-4.6c-0.4-1.7-1.6-2.6-3.3-2.6h-3.7l0,0h-3.7c-1.7,0-2.9,1-3.3,2.6c-0.7,3-1.9,8.5-2.5,11.5
			c-0.2,0.9,0.4,1.8,1.3,2s1.7-0.4,1.9-1.3c0.4-2.1,1.9-9.2,2.1-9.5l0.8,6.2l-2.3,18.1l0,0c0,0.1,0,0.2,0,0.3c0,1,0.8,1.8,1.8,1.8
			c0.9,0,1.6-0.6,1.8-1.5l0,0c0.4-2,2.1-15.2,2.1-15.2l2.1,15.2l0,0c0.2,0.8,0.9,1.5,1.8,1.5c1,0,1.8-0.8,1.8-1.8c0-0.1,0-0.2,0-0.3
			l0,0l-2.3-18.1l0.8-6.2c0.1,0.2,0.7,3.1,1,4.1c0.2,1,0.9,1.6,1.8,1.6c0.2,0,0.3,0,0.5-0.1l5.1-1.7l0,0
			C43.1,105.6,43.6,105,43.6,104.2z"/>
	</g>
</g>
<g>
	<rect x="41.4" y="93.4" class="st1" width="7.4" height="7.4"/>
</g>
<g>
	<g>
		<path class="st0" d="M69.7,95.8c1.8,0,3.4-1.5,3.4-3.4S71.6,89,69.7,89s-3.4,1.5-3.4,3.4C66.2,94.3,67.8,95.8,69.7,95.8z"/>
		<path class="st0" d="M83.4,104.2c0-0.9-0.7-1.6-1.6-1.6c-0.2,0-0.3,0-0.5,0.1l0,0c-1.7,0.5-2.5,0.8-3.6,1.1
			c-0.4-1.9-0.4-2.1-1-4.6c-0.4-1.7-1.6-2.6-3.3-2.6h-3.7l0,0H66c-1.7,0-2.9,1-3.3,2.6c-0.7,3-1.9,8.5-2.5,11.5
			c-0.2,0.9,0.4,1.8,1.3,2c0.9,0.2,1.7-0.4,1.9-1.3c0.4-2.1,1.9-9.2,2.1-9.5l0.8,6.2L64,126.2l0,0c0,0.1,0,0.2,0,0.3
			c0,1,0.8,1.8,1.8,1.8c0.9,0,1.6-0.6,1.8-1.5l0,0c0.4-2,2.1-15.2,2.1-15.2l2.1,15.2l0,0c0.2,0.8,0.9,1.5,1.8,1.5
			c1,0,1.8-0.8,1.8-1.8c0-0.1,0-0.2,0-0.3l0,0l-2.3-18.1l0.8-6.2c0.1,0.2,0.7,3.1,1,4.1c0.2,1,0.9,1.6,1.8,1.6c0.2,0,0.3,0,0.5-0.1
			l5.1-1.7l0,0C83,105.6,83.4,105,83.4,104.2z"/>
	</g>
</g>
<g>
	<rect x="81.2" y="93.4" class="st1" width="7.4" height="7.4"/>
</g>
<g>
	<g>
		<path class="st0" d="M109.5,95.8c1.8,0,3.4-1.5,3.4-3.4s-1.5-3.4-3.4-3.4s-3.4,1.5-3.4,3.4S107.6,95.8,109.5,95.8z"/>
		<path class="st0" d="M123.3,104.2c0-0.9-0.7-1.6-1.6-1.6c-0.2,0-0.3,0-0.5,0.1l0,0c-1.7,0.5-2.5,0.8-3.6,1.1
			c-0.4-1.9-0.4-2.1-1-4.6c-0.4-1.7-1.6-2.6-3.3-2.6h-3.7l0,0h-3.7c-1.7,0-2.9,1-3.3,2.6c-0.7,3-1.9,8.5-2.5,11.5
			c-0.2,0.9,0.4,1.8,1.3,2s1.7-0.4,1.9-1.3c0.4-2.1,1.9-9.2,2.1-9.5l0.8,6.2l-2.3,18.1l0,0c0,0.1,0,0.2,0,0.3c0,1,0.8,1.8,1.8,1.8
			c0.9,0,1.6-0.6,1.8-1.5l0,0c0.4-2,2.1-15.2,2.1-15.2l2.1,15.2l0,0c0.2,0.8,0.9,1.5,1.8,1.5c1,0,1.8-0.8,1.8-1.8c0-0.1,0-0.2,0-0.3
			l0,0l-2.3-18.1l0.8-6.2c0.1,0.2,0.7,3.1,1,4.1c0.2,1,0.9,1.6,1.8,1.6c0.2,0,0.3,0,0.5-0.1l5.1-1.7l0,0
			C122.8,105.6,123.3,105,123.3,104.2z"/>
	</g>
</g>
<g>
	<rect x="121.1" y="93.4" class="st1" width="7.4" height="7.4"/>
</g>
<g>
	<g>
		<path class="st0" d="M9.6,52.9c1.8,0,3.4-1.5,3.4-3.4s-1.5-3.4-3.4-3.4s-3.4,1.5-3.4,3.4C6.1,51.4,7.7,52.9,9.6,52.9z"/>
		<path class="st0" d="M23.3,61.3c0-0.9-0.7-1.6-1.6-1.6c-0.2,0-0.3,0-0.5,0.1l0,0c-1.7,0.5-2.5,0.8-3.6,1.1c-0.4-1.9-0.4-2.1-1-4.6
			c-0.4-1.7-1.6-2.6-3.3-2.6H9.6l0,0H5.9c-1.7,0-2.9,1-3.3,2.6c-0.7,3-1.9,8.5-2.5,11.5c-0.2,0.9,0.4,1.8,1.3,2s1.7-0.4,1.9-1.3
			c0.4-2.1,1.9-9.2,2.1-9.5l0.8,6.2L3.8,83.3l0,0c0,0.1,0,0.2,0,0.3c0,1,0.8,1.8,1.8,1.8c0.9,0,1.6-0.6,1.8-1.5l0,0
			c0.4-2,2.1-15.2,2.1-15.2L11.7,84l0,0c0.2,0.8,0.9,1.5,1.8,1.5c1,0,1.8-0.8,1.8-1.8c0-0.1,0-0.2,0-0.3l0,0L13,65.2l0.8-6.2
			c0.1,0.2,0.7,3.1,1,4.1c0.2,1,0.9,1.6,1.8,1.6c0.2,0,0.3,0,0.5-0.1l5.1-1.7l0,0C22.9,62.7,23.3,62.1,23.3,61.3z"/>
	</g>
</g>
<g>
	<rect x="21.1" y="50.5" class="st1" width="7.4" height="7.4"/>
</g>
<g>
	<g>
		<path class="st0" d="M49.4,52.9c1.8,0,3.4-1.5,3.4-3.4s-1.5-3.4-3.4-3.4S46,47.6,46,49.5S47.5,52.9,49.4,52.9z"/>
		<path class="st0" d="M63.2,61.3c0-0.9-0.7-1.6-1.6-1.6c-0.2,0-0.3,0-0.5,0.1l0,0c-1.7,0.5-2.5,0.8-3.6,1.1c-0.4-1.9-0.4-2.1-1-4.6
			c-0.4-1.7-1.6-2.6-3.3-2.6h-3.7l0,0h-3.7c-1.7,0-2.9,1-3.3,2.6c-0.7,3-1.9,8.5-2.5,11.5c-0.2,0.9,0.4,1.8,1.3,2
			c0.9,0.2,1.7-0.4,1.9-1.3c0.4-2.1,1.9-9.2,2.1-9.5l0.8,6.2l-2.3,18.1l0,0c0,0.1,0,0.2,0,0.3c0,1,0.8,1.8,1.8,1.8
			c0.9,0,1.6-0.6,1.8-1.5l0,0c0.4-2,2.1-15.2,2.1-15.2l2,15.3l0,0c0.2,0.8,0.9,1.5,1.8,1.5c1,0,1.8-0.8,1.8-1.8c0-0.1,0-0.2,0-0.3
			l0,0l-2.3-18.1l0.8-6.2c0.1,0.2,0.7,3.1,1,4.1c0.2,1,0.9,1.6,1.8,1.6c0.2,0,0.3,0,0.5-0.1L62,63l0,0
			C62.7,62.7,63.2,62.1,63.2,61.3z"/>
	</g>
</g>
<g>
	<rect x="61" y="50.5" class="st1" width="7.4" height="7.4"/>
</g>
<g>
	<g>
		<path class="st0" d="M89.3,52.9c1.8,0,3.4-1.5,3.4-3.4s-1.5-3.4-3.4-3.4s-3.4,1.5-3.4,3.4S87.4,52.9,89.3,52.9z"/>
		<path class="st0" d="M103.1,61.3c0-0.9-0.7-1.6-1.6-1.6c-0.2,0-0.3,0-0.5,0.1l0,0c-1.7,0.5-2.5,0.8-3.6,1.1
			c-0.4-1.9-0.4-2.1-1-4.6c-0.4-1.7-1.6-2.6-3.3-2.6h-3.7l0,0h-3.7c-1.7,0-2.9,1-3.3,2.6c-0.7,3-1.9,8.5-2.5,11.5
			c-0.2,0.9,0.4,1.8,1.3,2s1.7-0.4,1.9-1.3c0.4-2.1,1.9-9.2,2.1-9.5l0.8,6.2l-2.3,18.1l0,0c0,0.1,0,0.2,0,0.3c0,1,0.8,1.8,1.8,1.8
			c0.9,0,1.6-0.6,1.8-1.5l0,0c0.4-2,2.1-15.2,2.1-15.2l2,15.3l0,0c0.2,0.8,0.9,1.5,1.8,1.5c1,0,1.8-0.8,1.8-1.8c0-0.1,0-0.2,0-0.3
			l0,0l-2.3-18.1l0.8-6.2c0.1,0.2,0.7,3.1,1,4.1c0.3,1,0.9,1.6,1.8,1.6c0.2,0,0.3,0,0.5-0.1l5.1-1.7l0,0
			C102.6,62.7,103.1,62.1,103.1,61.3z"/>
	</g>
</g>
<g>
	<rect x="100.9" y="50.5" class="st1" width="7.4" height="7.4"/>
</g>
<g>
	<g>
		<path class="st0" d="M132.2,52.9c1.8,0,3.4-1.5,3.4-3.4s-1.5-3.4-3.4-3.4s-3.4,1.5-3.4,3.4S130.3,52.9,132.2,52.9z"/>
		<path class="st0" d="M146,61.3c0-0.9-0.7-1.6-1.6-1.6c-0.2,0-0.3,0-0.5,0.1l0,0c-1.7,0.5-2.5,0.8-3.6,1.1c-0.4-1.9-0.4-2.1-1-4.6
			c-0.4-1.7-1.6-2.6-3.3-2.6h-3.7l0,0h-3.7c-1.7,0-2.9,1-3.3,2.6c-0.7,3-1.9,8.5-2.5,11.5c-0.2,0.9,0.4,1.8,1.3,2s1.7-0.4,1.9-1.3
			c0.4-2.1,1.9-9.2,2.1-9.5l0.8,6.2l-2.3,18.1l0,0c0,0.1,0,0.2,0,0.3c0,1,0.8,1.8,1.8,1.8c0.9,0,1.6-0.6,1.8-1.5l0,0
			c0.4-2,2.1-15.2,2.1-15.2l2.1,15.2l0,0c0.2,0.8,0.9,1.5,1.8,1.5c1,0,1.8-0.8,1.8-1.8c0-0.1,0-0.2,0-0.3l0,0l-2.3-18.1l0.8-6.2
			c0.1,0.2,0.7,3.1,1,4.1c0.2,1,0.9,1.6,1.8,1.6c0.2,0,0.3,0,0.5-0.1l5.1-1.7l0,0C145.5,62.7,146,62.1,146,61.3z"/>
	</g>
</g>
<g>
	<rect x="143.8" y="50.5" class="st1" width="7.4" height="7.4"/>
</g>
<rect x="44.3" y="4.4" class="st0" width="1.6" height="3.7"/>
<rect x="84.1" y="4.4" class="st0" width="1.6" height="3.7"/>
<rect x="124" y="4.4" class="st0" width="1.6" height="3.7"/>
<rect x="44.3" y="93.4" class="st0" width="1.6" height="3.7"/>
<rect x="84.1" y="93.4" class="st0" width="1.6" height="3.7"/>
<rect x="124" y="93.4" class="st0" width="1.6" height="3.7"/>
<rect x="24" y="50.5" class="st0" width="1.6" height="3.7"/>
<rect x="63.9" y="50.5" class="st0" width="1.6" height="3.7"/>
<rect x="103.7" y="50.5" class="st0" width="1.6" height="3.7"/>
<rect x="146.7" y="50.5" class="st0" width="1.6" height="3.7"/>
</svg>
