<?xml version="1.0" encoding="utf-8"?>
<!-- Generator: Adobe Illustrator 22.0.1, SVG Export Plug-In . SVG Version: 6.00 Build 0)  -->
<svg version="1.1" id="Calque_1" xmlns="http://www.w3.org/2000/svg" xmlns:xlink="http://www.w3.org/1999/xlink" x="0px" y="0px"
	 viewBox="0 0 85 90" style="enable-background:new 0 0 85 90;" xml:space="preserve">
<style type="text/css">
	.st0{fill:#FF3D46;}
	.st1{fill:#FFFFFF;}
</style>
<rect x="52.5" y="48.2" class="st0" width="2.8" height="11"/>
<g>
	<path class="st1" d="M22.6,41.2c2.6,0,4.8-2.2,4.8-4.8s-2.1-4.8-4.8-4.8s-4.8,2.1-4.9,4.8C17.8,39,20,41.2,22.6,41.2z"/>
	<path class="st1" d="M36.2,62.3c-0.9-4.2-2.7-12-3.6-16.2c-0.5-2.4-2.2-3.7-4.6-3.7h-5.3h-5.3c-2.4,0-4.1,1.3-4.6,3.7
		c-0.9,4.2-2.7,12-3.6,16.2c-0.3,1.3,0.6,2.5,1.9,2.8c1.2,0.3,2.5-0.5,2.7-1.8c0.6-2.9,2.7-13.1,2.9-13.5l1.1,8.8l-3.3,25.7l0,0
		c0,0.1,0,0.3,0,0.4c0,1.4,1.2,2.6,2.6,2.6c1.3,0,2.3-0.9,2.6-2.1l0,0c0.5-2.8,3-21.4,3-21.4s2.5,18.6,3,21.4l0,0
		c0.3,1.2,1.3,2.1,2.6,2.1c1.4,0,2.6-1.2,2.6-2.6c0-0.1,0-0.3,0-0.4l0,0l-3.3-25.7l1.1-8.8c0.2,0.4,2.3,10.5,2.9,13.5
		c0.3,1.3,1.5,2,2.7,1.8C35.6,64.8,36.4,63.6,36.2,62.3z"/>
</g>
<path class="st0" d="M83.5,16.3V6c0-2.7-2.2-5-5-5H6C3.2,1,1,3.2,1,6v10.4l0,0v67.3c0,2.8,2.3,5,5,5h72.4c2.8,0,5-2.3,5-5L83.5,16.3
	L83.5,16.3z M39,83.7H6.3V23.4H39V83.7z M78.2,83.7H45.5V23.4h32.7V83.7z"/>
<g>
	<path class="st1" d="M27.5,18.2v-1.9c0.8,0.5,1.4,0.7,2,0.7c0.7,0,1.3-0.4,1.3-1.3l0,0c0-0.7-0.2-1.2-1.4-2.6
		c-1.5-1.8-2.1-2.6-2.1-4l0,0c0-1.8,1.2-3,2.9-3c0.8,0,1.4,0.2,1.9,0.4v1.9c-0.7-0.4-1.2-0.6-1.7-0.6c-0.7,0-1.3,0.5-1.3,1.3l0,0
		c0,0.7,0.2,1.1,1.4,2.4c1.7,2,2.1,2.8,2.1,4.2l0,0c0,1.8-1.3,3.1-2.9,3.1C28.8,18.7,28.1,18.5,27.5,18.2z"/>
	<path class="st1" d="M34.6,6.1h1.8v5.4h2.5V6.1h1.7v12.5h-1.7v-5.4h-2.5v5.4h-1.8V6.1z"/>
	<path class="st1" d="M42.8,12.6v-0.5C42.8,7.9,44.1,6,46,6s3.2,1.9,3.2,6.1v0.5c0,4.2-1.3,6.1-3.2,6.1
		C44.1,18.8,42.8,16.8,42.8,12.6z M47.5,12.6v-0.5c0-3.2-0.6-4.5-1.4-4.5c-0.8,0-1.4,1.3-1.4,4.5v0.5c0,3.2,0.6,4.5,1.4,4.5
		C46.9,17.2,47.5,15.9,47.5,12.6z"/>
	<path class="st1" d="M51.5,6.1h1.8c2.3,0,3.9,1.4,3.9,4.1l0,0c0,2.7-1.5,4.1-3.7,4.2h-0.2v4.1h-1.8V6.1z M53.5,12.9
		c1.2,0,2-0.9,2-2.5l0,0c0-1.7-0.7-2.5-1.9-2.5h-0.3V13h0.2V12.9z"/>
</g>
</svg>
