<?xml version="1.0" encoding="utf-8"?>
<!-- Generator: Adobe Illustrator 22.0.1, SVG Export Plug-In . SVG Version: 6.00 Build 0)  -->
<svg version="1.1" id="Calque_1" xmlns="http://www.w3.org/2000/svg" xmlns:xlink="http://www.w3.org/1999/xlink" x="0px" y="0px"
	 viewBox="0 0 411 145.1" style="enable-background:new 0 0 411 145.1;" xml:space="preserve">
<style type="text/css">
	.st0{fill:#FFFFFF;}
</style>
<title>whatdo</title>
<path class="st0" d="M305,58.9c0.6-0.4,0.7-1.2,0.3-1.7c-0.1-0.1-0.2-0.2-0.3-0.3L206,0h-0.8L106,56.9c-0.6,0.3-0.8,1-0.5,1.5
	c0.1,0.2,0.3,0.3,0.5,0.5l50.9,30.7v25.5l0.6,1c9.8,17.9,28.5,29,48.8,29.1c19.1,0,36.9-9.8,47-26l0.6-1V89.8l22-13.3v10.9
	c-1.5,0.9-2.4,2.5-2.4,4.2c0,1.4,0.6,2.7,1.6,3.6l-3.2,24.8c0,1.2,3,2,6.7,2s6.7-1,6.7-2l-3.6-24.8c1.2-0.9,1.9-2.3,1.8-3.8
	c-0.1-1.7-1-3.3-2.4-4.2V73.3L305,58.9 M245.3,113.8h-0.2c0,0.9-0.2,1.9-0.8,2.6c-14.9,21-44.1,25.9-65,10.9
	c-5.1-3.6-9.4-8.2-12.7-13.6c-0.4-0.7-0.6-1.6-0.6-2.4V95.1l39.2,23.4c0.3,0.2,0.7,0.2,1,0l39.2-23.4L245.3,113.8L245.3,113.8z
	 M206,108.4c-0.3,0.2-0.7,0.2-1,0l-81.7-49.2c-0.6-0.5-0.6-1.4-0.1-1.9c0,0,0.1-0.1,0.1-0.1l81.9-47h0.8l81.9,47
	c0.6,0.3,0.8,1,0.5,1.5c-0.1,0.2-0.3,0.3-0.5,0.5L206,108.4z"/>
</svg>
