<?xml version="1.0" encoding="utf-8"?>
<!-- Generator: Adobe Illustrator 22.0.1, SVG Export Plug-In . SVG Version: 6.00 Build 0)  -->
<svg version="1.1" id="Calque_1" xmlns="http://www.w3.org/2000/svg" xmlns:xlink="http://www.w3.org/1999/xlink" x="0px" y="0px"
	 viewBox="0 0 411 133.9" style="enable-background:new 0 0 411 133.9;" xml:space="preserve">
<style type="text/css">
	.st0{fill:#FFFFFF;}
</style>
<title>whatdo</title>
<g>
	<path class="st0" d="M205.3,133.9c-2.4,0-4.3-1.9-4.3-4.3c0-0.4,0.1-0.8,0.2-1.2l7.1-25h-50.3c-16.5,0-29.8-13.4-29.9-29.9V29.9
		C128,13.4,141.4,0,157.9,0h95.3C269.6,0,283,13.4,283,29.9v43.6c0,16.5-13.4,29.9-29.9,29.9h-3l-42.4,29.7
		C207.1,133.6,206.2,133.9,205.3,133.9 M157.9,8.7c-11.7,0-21.2,9.5-21.2,21.2v43.6c0,11.7,9.5,21.2,21.2,21.2h56.1
		c2.4,0,4.3,1.9,4.3,4.3c0,0.4-0.1,0.8-0.2,1.2l-5.3,18.8l33.5-23.5c0.7-0.5,1.6-0.8,2.5-0.8h4.4c11.7,0,21.2-9.5,21.2-21.2V29.9
		c0-11.7-9.5-21.2-21.2-21.2H157.9z"/>
	<path class="st0" d="M213.2,57.9c0,4.7-3.8,8.5-8.6,8.5s-8.6-3.8-8.6-8.6c0-4.7,3.8-8.5,8.6-8.5S213.2,53.1,213.2,57.9L213.2,57.9"
		/>
	<path class="st0" d="M213.2,57.9c0,4.7-3.8,8.5-8.6,8.5s-8.6-3.8-8.6-8.6c0-4.7,3.8-8.5,8.6-8.5S213.2,53.1,213.2,57.9L213.2,57.9"
		/>
	<path class="st0" d="M213.2,57.9c0,4.7-3.8,8.5-8.6,8.5s-8.6-3.8-8.6-8.6c0-4.7,3.8-8.5,8.6-8.5S213.2,53.1,213.2,57.9L213.2,57.9"
		/>
	<path class="st0" d="M214.1,57.9c0,4.7-3.8,8.5-8.6,8.5s-8.6-3.8-8.6-8.6c0-4.7,3.8-8.5,8.6-8.5S214.1,53.1,214.1,57.9L214.1,57.9"
		/>
	<path class="st0" d="M241.6,57.9c0,4.7-3.8,8.5-8.6,8.5s-8.6-3.8-8.6-8.6c0-4.7,3.8-8.5,8.6-8.5S241.6,53.1,241.6,57.9L241.6,57.9"
		/>
	<path class="st0" d="M186.4,57.9c0,4.7-3.8,8.5-8.6,8.5s-8.6-3.8-8.6-8.6c0-4.7,3.8-8.5,8.6-8.5S186.4,53.1,186.4,57.9L186.4,57.9"
		/>
</g>
</svg>
