<?xml version="1.0" encoding="utf-8"?>
<!-- Generator: Adobe Illustrator 22.0.1, SVG Export Plug-In . SVG Version: 6.00 Build 0)  -->
<svg version="1.1" id="Calque_1" xmlns="http://www.w3.org/2000/svg" xmlns:xlink="http://www.w3.org/1999/xlink" x="0px" y="0px"
	 viewBox="0 0 411 90.8" style="enable-background:new 0 0 411 90.8;" xml:space="preserve">
<style type="text/css">
	.st0{fill:#FFFFFF;}
</style>
<title>whatdo</title>
<g>
	<path class="st0" d="M327.6,40.3h-33.3l-0.3-2c-3.4-21.9-22.2-38.1-44.4-38.1h-16.7c-2.9,0-5.2,2.3-5.2,5.1c0,0,0,0.1,0,0.1v80.2
		c0,2.9,2.3,5.2,5.1,5.2c0,0,0.1,0,0.1,0h16.4c22.1,0,41.2-16.4,44.4-38.1l0.3-2h33.6c2.9,0,5.2-2.3,5.2-5.2S330.4,40.3,327.6,40.3
		L327.6,40.3 M275.5,70.8C268.6,77.9,259,82,249,82h-13.1V8.8H249c20.1,0.3,36.4,16.8,36.4,36.6C285.7,54.8,282.1,64,275.5,70.8
		L275.5,70.8z"/>
	<path class="st0" d="M178.2,90.5h-16.7c-22.2,0-41.1-16.2-44.4-38.1l-0.3-2H83.5c-2.9,0-5.2-2.3-5.2-5.2s2.3-5.2,5.2-5.2h33.6
		l0.3-2c3.2-21.7,22.3-38,44.4-38h16.4c2.9,0,5.2,2.3,5.2,5.1c0,0,0,0.1,0,0.1V20h20c2.9,0,5.2,2.3,5.2,5.2s-2.3,5.2-5.2,5.2h-20V60
		h20c2.9,0,5.2,2.3,5.2,5.2s-2.3,5.2-5.2,5.2h-20v14.8c0,2.8-2.2,5.2-5.1,5.2C178.3,90.5,178.2,90.5,178.2,90.5 M162.1,9.1
		c-20.2,0-36.5,16.3-36.5,36.5s16.3,36.5,36.5,36.5l0,0h13.1v-73H162.1z"/>
	<path class="st0" d="M327.6,40.3h-33.3l-0.3-2c-3.4-21.9-22.2-38.1-44.4-38.1h-16.7c-2.9,0-5.2,2.3-5.2,5.1c0,0,0,0.1,0,0.1v80.2
		c0,2.9,2.3,5.2,5.1,5.2c0,0,0.1,0,0.1,0h16.4c22.1,0,41.2-16.4,44.4-38.1l0.3-2h33.6c2.9,0,5.2-2.3,5.2-5.2S330.4,40.3,327.6,40.3
		L327.6,40.3 M275.5,70.8C268.6,77.9,259,82,249,82h-13.1V8.8H249c20.1,0.3,36.4,16.8,36.4,36.6C285.7,54.8,282.1,64,275.5,70.8
		L275.5,70.8z"/>
	<path class="st0" d="M178.2,90.5h-16.7c-22.2,0-41.1-16.2-44.4-38.1l-0.3-2H83.5c-2.9,0-5.2-2.3-5.2-5.2s2.3-5.2,5.2-5.2h33.6
		l0.3-2c3.2-21.7,22.3-38,44.4-38h16.4c2.9,0,5.2,2.3,5.2,5.1c0,0,0,0.1,0,0.1V20h20c2.9,0,5.2,2.3,5.2,5.2s-2.3,5.2-5.2,5.2h-20V60
		h20c2.9,0,5.2,2.3,5.2,5.2s-2.3,5.2-5.2,5.2h-20v14.8c0,2.8-2.2,5.2-5.1,5.2C178.3,90.5,178.2,90.5,178.2,90.5 M162.1,9.1
		c-20.2,0-36.5,16.3-36.5,36.5s16.3,36.5,36.5,36.5l0,0h13.1v-73H162.1z"/>
</g>
</svg>
