<?xml version="1.0" encoding="utf-8"?>
<!-- Generator: Adobe Illustrator 22.0.1, SVG Export Plug-In . SVG Version: 6.00 Build 0)  -->
<svg version="1.1" id="Calque_1" xmlns="http://www.w3.org/2000/svg" xmlns:xlink="http://www.w3.org/1999/xlink" x="0px" y="0px"
	 viewBox="0 0 411 149.1" style="enable-background:new 0 0 411 149.1;" xml:space="preserve">
<style type="text/css">
	.st0{fill:#FFFFFF;}
</style>
<title>whatdo</title>
<path class="st0" d="M264.4,59.8c10-18.7,2.9-41.9-15.8-51.9c-5.6-3-11.8-4.5-18.1-4.5h-8.9c-3.2-2.3-7.1-3.5-11-3.4
	c-12.4,0-29.9,9.2-43.6,22.8c-9,9-16.3,19.9-20,30c-4.3,11.4-3.6,20.7,1.8,26.1c0.8,0.8,1.8,1.5,2.8,2.1l0.2,0.2l60.3,45
	c3.1,2.8,7.1,4.2,11.3,4.1c10,0,22.9-6.7,33.7-17.4c7.5-7.5,13-16,15.7-24c2.9-8.8,2.1-16.2-2.4-20.9L264.4,59.8 M261,41.9
	c0,3.6-0.7,7.3-2,10.7l-30.6-41h2.2c16.7,0,30.2,13.5,30.3,30.2L261,41.9z M265.3,86.4c-2.3,6.9-7.2,14.3-13.8,20.9
	c-9.1,9.2-20.1,15.1-28,15.1c-2.6,0-4.5-0.6-5.8-1.9L167.6,83c0.9-0.2,1.9-0.5,2.9-0.7c0.4-0.1,0.9-0.2,1.3-0.3
	c1.7-0.5,3.4-1.1,5.1-1.8c0.4-0.2,0.8-0.4,1.2-0.6c1.4-0.6,2.7-1.2,4.1-1.9c0.6-0.3,1.3-0.7,1.9-1.1c1.1-0.6,2.3-1.3,3.4-2
	c0.7-0.4,1.4-0.9,2.1-1.3c1.1-0.7,2.2-1.4,3.2-2.2c0.7-0.5,1.4-1,2.1-1.5c1.1-0.8,2.2-1.7,3.3-2.6c0.6-0.5,1.3-1,1.9-1.6
	c1.4-1.2,2.8-2.5,4.2-3.9l0.7-0.6c1.3-1.3,2.5-2.6,3.7-3.9l0.7-0.8c1-1.1,1.9-2.3,2.9-3.4c0.3-0.3,0.5-0.7,0.8-1
	c0.9-1.1,1.7-2.3,2.6-3.5l0.7-1c0.9-1.3,1.7-2.6,2.5-3.8l0.4-0.7c0.9-1.5,1.8-3,2.6-4.6c0.2-0.4,0.4-0.7,0.5-1.1
	c0.6-1.1,1.1-2.2,1.5-3.3c0.3-0.6,0.5-1.3,0.8-1.9c0.3-0.8,0.6-1.7,0.9-2.5c0.2-0.7,0.4-1.3,0.6-2c0.3-0.9,0.5-1.8,0.7-2.6
	c0.1-0.4,0.2-0.9,0.3-1.3l27.4,36.8c-5.7,7.5-14.6,12-24.1,12h-10.3v8.1h10.2c11.1,0,21.7-4.9,29-13.3l4.6,6.1l0.4,0.4
	c2.4,2.3,2.6,6.9,0.7,12.8L265.3,86.4z M154.5,101.4l-3,3.4c-2.5,2.8-15.1,17.4-15.1,26.2c0,10,8.1,18.1,18.1,18.1
	s18.1-8.1,18.1-18.1l0,0c0-8.9-12.5-23.4-15.1-26.2L154.5,101.4z M216.6,9.6c7.5,7.5-0.5,27.6-17.9,45s-37.5,25.3-45,17.8
	s0.5-27.6,17.9-45s37.4-25.5,44.9-18L216.6,9.6z"/>
</svg>
