<svg id="Calque_1" data-name="Calque 1" xmlns="http://www.w3.org/2000/svg" viewBox="0 0 411 237"><defs><style>.cls-1{fill:#fff;}</style></defs><title>whatdo</title><path class="cls-1" d="M259.57,80.64l-0.1-.33L259.39,80l-0.15-.29-0.15-.27-0.16-.2L258.69,79,231.6,51.91l-0.21-.17a3.22,3.22,0,0,0-1.45-.72L229.31,51H154.61a3.25,3.25,0,0,0-3.25,3.25V182.79a3.25,3.25,0,0,0,3.25,3.25H256.39a3.25,3.25,0,0,0,3.25-3.25V81.29l-0.07-.65m-6.43,98.9H157.86V57.46h68.2V81.29a3.25,3.25,0,0,0,3.25,3.25h23.83v95Z"/><path class="cls-1" d="M170.19,143.23a3.25,3.25,0,0,0,3.25,3.25h64.12a3.25,3.25,0,0,0,0-6.5H173.44a3.25,3.25,0,0,0-3.25,3.25"/><path class="cls-1" d="M237.56,160.11H173.44a3.25,3.25,0,0,0,0,6.5h64.12a3.25,3.25,0,0,0,0-6.5"/><path class="cls-1" d="M184,104.23a3.25,3.25,0,0,0,3.25,3.25h4c3.32,10.25,11.81,17.57,21.77,17.57a20.93,20.93,0,0,0,12.75-4.42,3.25,3.25,0,0,0-3.94-5.16,14.5,14.5,0,0,1-8.81,3.08c-6.46,0-12.06-4.51-14.86-11.08h19.35a3.25,3.25,0,1,0,0-6.5H196.42a22.73,22.73,0,0,1,0-6H217a3.25,3.25,0,1,0,0-6.5H198.13c2.8-6.57,8.41-11.08,14.86-11.08a14.51,14.51,0,0,1,8.81,3.08,3.25,3.25,0,1,0,3.94-5.17A20.93,20.93,0,0,0,213,70.91c-10,0-18.45,7.33-21.77,17.57h-4a3.25,3.25,0,0,0,0,6.5h2.66c-0.1,1-.15,2-0.15,3s0.06,2,.15,3h-2.66a3.25,3.25,0,0,0-3.25,3.25"/></svg>