<svg id="Calque_1" data-name="Calque 1" xmlns="http://www.w3.org/2000/svg" viewBox="0 0 411 237"><defs><style>.cls-1{fill:#fff;}</style></defs><title>whatdo</title><path class="cls-1" d="M327.55,113.43H294.26l-0.32-2a44.9,44.9,0,0,0-44.42-38.08h-16.7a5.17,5.17,0,0,0-5.23,5.23v80.15a5.17,5.17,0,0,0,5.23,5.22h16.39c22.14,0,41.23-16.36,44.41-38.05l0.3-2h33.62a5.22,5.22,0,1,0,0-10.44m-52,30.41a37.16,37.16,0,0,1-26.59,11.29H235.82V81.87H249c20.07,0.34,36.4,16.84,36.4,36.63A34.52,34.52,0,0,1,275.5,143.84Z"/><path class="cls-1" d="M178.18,163.64h-16.7a44.9,44.9,0,0,1-44.42-38.08l-0.32-2H83.45a5.22,5.22,0,1,1,0-10.44h33.62l0.3-2c3.18-21.69,22.28-38,44.41-38h16.39a5.17,5.17,0,0,1,5.22,5.23V93.09h20a5.22,5.22,0,1,1,0,10.44h-20v29.63h20a5.22,5.22,0,1,1,0,10.44h-20v14.82a5.16,5.16,0,0,1-5.22,5.22M162.09,82.17a36.48,36.48,0,0,0,0,73h13.09v-73H162.09Z"/><path class="cls-1" d="M327.55,113.43H294.26l-0.32-2a44.9,44.9,0,0,0-44.42-38.08h-16.7a5.17,5.17,0,0,0-5.23,5.23v80.15a5.17,5.17,0,0,0,5.23,5.22h16.39c22.14,0,41.23-16.36,44.41-38.05l0.3-2h33.62a5.22,5.22,0,1,0,0-10.44m-52,30.41a37.16,37.16,0,0,1-26.59,11.29H235.82V81.87H249c20.07,0.34,36.4,16.84,36.4,36.63A34.52,34.52,0,0,1,275.5,143.84Z"/><path class="cls-1" d="M178.18,163.64h-16.7a44.9,44.9,0,0,1-44.42-38.08l-0.32-2H83.45a5.22,5.22,0,1,1,0-10.44h33.62l0.3-2c3.18-21.69,22.28-38,44.41-38h16.39a5.17,5.17,0,0,1,5.22,5.23V93.09h20a5.22,5.22,0,1,1,0,10.44h-20v29.63h20a5.22,5.22,0,1,1,0,10.44h-20v14.82a5.16,5.16,0,0,1-5.22,5.22M162.09,82.17a36.48,36.48,0,0,0,0,73h13.09v-73H162.09Z"/></svg>