<?xml version="1.0" encoding="utf-8"?>
<!-- Generator: Adobe Illustrator 22.0.1, SVG Export Plug-In . SVG Version: 6.00 Build 0)  -->
<svg version="1.1" id="Calque_1" xmlns="http://www.w3.org/2000/svg" xmlns:xlink="http://www.w3.org/1999/xlink" x="0px" y="0px"
	 viewBox="0 0 411 135" style="enable-background:new 0 0 411 135;" xml:space="preserve">
<style type="text/css">
	.st0{fill:#FFFFFF;}
</style>
<title>whatdo</title>
<g>
	<path class="st0" d="M259.6,29.6l-0.1-0.3l-0.1-0.3l-0.1-0.3l-0.1-0.3l-0.2-0.2l-0.2-0.2L231.6,0.9l-0.2-0.2
		c-0.4-0.4-0.9-0.6-1.4-0.7l-0.6,0h-74.7c-1.8,0-3.2,1.5-3.2,3.2l0,0v128.5c0,1.8,1.5,3.2,3.2,3.2h101.8c1.8,0,3.2-1.5,3.2-3.2V30.3
		L259.6,29.6 M253.1,128.5h-95.3V6.5h68.2v23.8c0,1.8,1.5,3.2,3.2,3.2l0,0h23.8L253.1,128.5L253.1,128.5z"/>
	<path class="st0" d="M170.2,92.2c0,1.8,1.5,3.2,3.2,3.2h64.1c1.8,0,3.2-1.5,3.2-3.2s-1.5-3.2-3.2-3.2h-64.1
		C171.6,89,170.2,90.4,170.2,92.2"/>
	<path class="st0" d="M237.6,109.1h-64.1c-1.8,0-3.2,1.5-3.2,3.2s1.5,3.2,3.2,3.2h64.1c1.8,0,3.2-1.5,3.2-3.2
		S239.4,109.1,237.6,109.1"/>
	<path class="st0" d="M184,53.2c0,1.8,1.5,3.2,3.2,3.2l0,0h4c3.3,10.2,11.8,17.6,21.8,17.6c4.6,0,9.1-1.6,12.8-4.4
		c1.4-1.2,1.5-3.2,0.4-4.6c-1.1-1.3-3-1.5-4.3-0.6c-2.5,2-5.6,3.1-8.8,3.1c-6.5,0-12.1-4.5-14.9-11.1h19.4c1.8,0,3.2-1.5,3.2-3.2
		s-1.5-3.2-3.2-3.2h-21.1c-0.3-2-0.3-4,0-6H217c1.8,0,3.2-1.5,3.2-3.2s-1.5-3.2-3.2-3.2h-18.9c2.8-6.6,8.4-11.1,14.9-11.1
		c3.2,0,6.3,1.1,8.8,3.1c1.4,1.1,3.5,0.8,4.6-0.6c1.1-1.4,0.8-3.5-0.6-4.6l0,0c-3.6-2.8-8.1-4.4-12.7-4.4c-10,0-18.5,7.3-21.8,17.6
		h-4c-1.8,0-3.2,1.5-3.2,3.2c0,1.8,1.5,3.2,3.2,3.2h2.7c-0.1,1-0.1,2-0.1,3s0.1,2,0.1,3h-2.7C185.4,50,184,51.4,184,53.2L184,53.2"
		/>
</g>
</svg>
