<svg id="Calque_1" data-name="Calque 1" xmlns="http://www.w3.org/2000/svg" viewBox="0 0 411 237"><defs><style>.cls-1{fill:#fff;}</style></defs><title>whatdo</title><path class="cls-1" d="M264.49,103.84A38.36,38.36,0,0,0,230.62,47.4h-8.89a17.9,17.9,0,0,0-11-3.37c-12.42,0-29.94,9.16-43.59,22.81-9,9-16.28,19.92-20,30-4.26,11.44-3.62,20.72,1.8,26.14a14.56,14.56,0,0,0,2.78,2.12l0.23,0.18,60.29,45a15.91,15.91,0,0,0,11.27,4.08c10,0,22.93-6.69,33.68-17.44,7.47-7.46,13.05-16,15.73-24,2.94-8.84,2.1-16.25-2.36-20.92l-6-8.09m-3.54-18a30.12,30.12,0,0,1-2,10.66l-30.57-41h2.22A30.37,30.37,0,0,1,261,85.79Zm4.29,44.51c-2.29,6.87-7.18,14.29-13.78,20.89-9.15,9.16-20.13,15.08-28,15.08-2.57,0-4.52-.65-5.8-1.94l-50.1-37.43c0.94-.19,1.91-0.47,2.88-0.74,0.45-.12.88-0.2,1.34-0.34q2.51-.76,5.11-1.83c0.4-.16.82-0.38,1.22-0.55,1.35-.58,2.7-1.2,4.06-1.9,0.65-.34,1.29-0.7,1.94-1.07,1.13-.62,2.26-1.26,3.4-2,0.71-.44,1.42-0.89,2.12-1.35,1.08-.71,2.16-1.44,3.23-2.21,0.71-.5,1.41-1,2.11-1.53,1.1-.83,2.18-1.71,3.26-2.61,0.64-.52,1.28-1,1.9-1.56,1.42-1.24,2.81-2.54,4.17-3.87l0.69-.64c1.27-1.27,2.5-2.6,3.71-3.95l0.66-.77c1-1.13,1.94-2.26,2.87-3.43,0.26-.33.53-0.66,0.78-1,0.89-1.14,1.74-2.29,2.57-3.47l0.71-1c0.87-1.27,1.71-2.55,2.49-3.84l0.45-.71c0.91-1.51,1.77-3,2.56-4.55,0.19-.36.35-0.73,0.53-1.09,0.55-1.1,1.07-2.2,1.54-3.28,0.28-.63.51-1.26,0.77-1.89,0.33-.84.65-1.68,0.93-2.52,0.23-.65.45-1.3,0.64-2,0.26-.88.48-1.76,0.68-2.62,0.1-.43.25-0.86,0.34-1.28l27.45,36.8a30.27,30.27,0,0,1-24.06,12H220.43v8.06l10.19,0a38.3,38.3,0,0,0,29-13.35l4.57,6.13,0.38,0.44C267,119.76,267.18,124.45,265.24,130.3Zm-110.76,15-3,3.39c-2.52,2.83-15.08,17.38-15.08,26.23a18.08,18.08,0,0,0,36.16,0c0-8.85-12.54-23.4-15.05-26.23Zm62.14-91.76c7.49,7.49-.5,27.62-17.85,45s-37.47,25.33-45,17.85,0.5-27.62,17.85-45S209.13,46,216.62,53.52Z"/></svg>