<svg id="Calque_1" data-name="Calque 1" xmlns="http://www.w3.org/2000/svg" viewBox="0 0 411 237"><defs><style>.cls-1{fill:#fff;}</style></defs><title>whatdo</title><path class="cls-1" d="M282.71,81.73l-0.27-.6a4.22,4.22,0,0,0-1.54-1.46L207.32,42.89a3.75,3.75,0,0,0-3.36,0L130.4,79.67a3.85,3.85,0,0,0-1.81,2.06l-0.12.31a3.69,3.69,0,0,0-.14,1V156.6A3.75,3.75,0,0,0,130.4,160L204,196.74l0.44,0.16,0.3,0.11a3.83,3.83,0,0,0,.94.13,3.65,3.65,0,0,0,.94-0.13l0.3-.11,0.44-.16L280.9,160A3.75,3.75,0,0,0,283,156.6V83a3.56,3.56,0,0,0-.14-1l-0.12-.31M205.65,50.44L234,64.64,168.86,97.23,140.47,83Zm0,65.18-28.39-14.19,65.18-32.59L270.82,83Zm-3.75,71.69-66.06-33V89.1l66.06,33v65.18Zm73.57-33-66.06,33V122.13l66.06-33v65.18Z"/></svg>