<svg id="Calque_1" data-name="Calque 1" xmlns="http://www.w3.org/2000/svg" viewBox="0 0 411 237"><defs><style>.cls-1{fill:#fff;}</style></defs><title>whatdo</title><path class="cls-1" d="M205.28,185.44a4.32,4.32,0,0,1-4.16-5.5l7.09-25H157.86A29.9,29.9,0,0,1,128,125.08V81.43a29.9,29.9,0,0,1,29.87-29.87h95.27A29.9,29.9,0,0,1,283,81.43v43.64a29.9,29.9,0,0,1-29.87,29.87h-3l-42.35,29.71a4.3,4.3,0,0,1-2.48.78M157.86,60.21a21.25,21.25,0,0,0-21.22,21.22v43.64a21.24,21.24,0,0,0,21.22,21.22h56.07a4.32,4.32,0,0,1,4.16,5.51l-5.33,18.78,33.5-23.5a4.33,4.33,0,0,1,2.49-.79h4.38a21.24,21.24,0,0,0,21.22-21.22V81.43a21.25,21.25,0,0,0-21.22-21.22H157.86Z"/><path class="cls-1" d="M213.25,109.43a8.55,8.55,0,1,1-8.55-8.55,8.55,8.55,0,0,1,8.55,8.55"/><path class="cls-1" d="M213.25,109.43a8.55,8.55,0,1,1-8.55-8.55,8.55,8.55,0,0,1,8.55,8.55"/><path class="cls-1" d="M213.25,109.43a8.55,8.55,0,1,1-8.55-8.55,8.55,8.55,0,0,1,8.55,8.55"/><path class="cls-1" d="M214.05,109.43a8.55,8.55,0,1,1-8.55-8.55,8.55,8.55,0,0,1,8.55,8.55"/><path class="cls-1" d="M241.65,109.43a8.55,8.55,0,1,1-8.55-8.55,8.55,8.55,0,0,1,8.55,8.55"/><path class="cls-1" d="M186.45,109.43a8.55,8.55,0,1,1-8.55-8.55,8.55,8.55,0,0,1,8.55,8.55"/></svg>