<?xml version="1.0" encoding="utf-8"?>
<!-- Generator: Adobe Illustrator 22.0.1, SVG Export Plug-In . SVG Version: 6.00 Build 0)  -->
<svg version="1.1" id="Calque_1" xmlns="http://www.w3.org/2000/svg" xmlns:xlink="http://www.w3.org/1999/xlink" x="0px" y="0px"
	 viewBox="0 0 411 154.6" style="enable-background:new 0 0 411 154.6;" xml:space="preserve">
<style type="text/css">
	.st0{fill:#FFFFFF;}
</style>
<title>whatdo</title>
<g>
	<path class="st0" d="M282.5,39.2l-0.3-0.6c-0.4-0.6-0.9-1.1-1.5-1.5L207.2,0.4c-1.1-0.5-2.3-0.5-3.4,0l-73.6,36.8
		c-0.8,0.4-1.5,1.2-1.8,2.1l-0.1,0.3c-0.1,0.3-0.1,0.7-0.1,1v73.6c0,1.4,0.8,2.8,2.1,3.4l73.6,36.7l0.4,0.2l0.3,0.1
		c0.3,0.1,0.6,0.1,0.9,0.1c0.3,0,0.6,0,0.9-0.1l0.3-0.1l0.4-0.2l73.5-36.7c1.3-0.6,2.1-2,2.1-3.4V40.5c0-0.3,0-0.7-0.1-1L282.5,39.2
		 M205.5,7.9l28.4,14.2l-65.1,32.6l-28.4-14.2L205.5,7.9z M205.5,73.1l-28.4-14.2l65.2-32.6l28.4,14.2L205.5,73.1z M201.7,144.8
		l-66.1-33V46.6l66.1,33V144.8L201.7,144.8z M275.3,111.8l-66.1,33V79.6l66.1-33V111.8z"/>
</g>
</svg>
