<svg id="Calque_1" data-name="Calque 1" xmlns="http://www.w3.org/2000/svg" viewBox="0 0 411 237"><defs><style>.cls-1{fill:#fff;}</style></defs><title>whatdo</title><path class="cls-1" d="M305,104.88a1.23,1.23,0,0,0,0-2L205.94,45.95h-0.81L106,102.86a1.14,1.14,0,0,0,0,2l50.86,30.67V161l0.61,1a55.81,55.81,0,0,0,48.84,29.06,55.25,55.25,0,0,0,47-26l0.61-1V135.76l22-13.32v10.9a4.92,4.92,0,0,0-2.42,4.24,4.73,4.73,0,0,0,1.62,3.63L271.94,166c0,1.21,3,2,6.66,2s6.66-1,6.66-2l-3.63-24.82a4.43,4.43,0,0,0,1.82-3.83,5.19,5.19,0,0,0-2.42-4.24V119.21l24-14.33m-59.74,54.9h-0.2a4.06,4.06,0,0,1-.81,2.62,46.63,46.63,0,0,1-77.7-2.62,4.83,4.83,0,0,1-.6-2.42V141l39.15,23.41a0.9,0.9,0,0,0,1,0L245.3,141v18.77Zm-39.36-5.45a0.91,0.91,0,0,1-1,0l-81.74-49.24a1.35,1.35,0,0,1,0-2l81.94-47h0.81l81.94,47a1.14,1.14,0,0,1,0,2Z"/></svg>